<?xml version="1.0" standalone="no"?>
<!DOCTYPE svg PUBLIC "-//W3C//DTD SVG 20010904//EN"
 "http://www.w3.org/TR/2001/REC-SVG-20010904/DTD/svg10.dtd">
<svg version="1.0" xmlns="http://www.w3.org/2000/svg"
 width="500.000000pt" height="500.000000pt" viewBox="0 0 500.000000 500.000000"
 preserveAspectRatio="xMidYMid meet">

<g transform="translate(0.000000,500.000000) scale(0.100000,-0.100000)"
fill="#000000" stroke="none">
<path d="M3791 4990 c-252 -53 -426 -338 -355 -581 38 -129 140 -256 251 -312
115 -59 299 -59 420 0 130 63 241 211 264 353 32 199 -91 425 -279 513 -58 27
-79 32 -162 34 -52 1 -115 -2 -139 -7z"/>
<path d="M3440 3929 c-208 -27 -378 -213 -483 -529 -34 -101 -62 -218 -55
-225 7 -7 291 -85 308 -85 19 0 24 9 35 70 11 60 56 205 67 215 7 7 9 -88 4
-309 -3 -176 -6 -406 -6 -513 0 -190 0 -193 -20 -181 -17 11 -24 8 -58 -25
-21 -20 -41 -37 -45 -37 -10 0 -8 297 3 420 16 176 23 280 19 280 -3 0 -65 18
-139 40 -199 59 -183 67 -204 -97 -32 -245 -32 -854 0 -936 8 -21 -111 -114
-205 -162 -98 -49 -258 -100 -351 -113 -41 -6 -135 -13 -207 -17 -158 -7 -251
-29 -360 -84 -173 -86 -324 -263 -378 -441 -22 -75 -31 -271 -15 -341 34 -146
152 -290 291 -353 174 -80 363 -73 551 19 159 77 275 190 349 340 48 99 65
166 79 320 18 195 76 401 153 539 18 32 62 91 97 132 50 56 70 72 85 68 64
-17 101 -15 145 8 68 35 90 75 90 166 0 73 1 75 38 109 20 19 49 44 65 55 l27
19 0 -495 0 -496 23 -5 c33 -8 101 -10 315 -7 l192 2 0 441 0 440 48 -3 47 -3
3 -437 2 -438 260 0 260 0 0 1058 1 1057 20 -37 c10 -21 31 -86 45 -145 14
-60 29 -113 33 -119 4 -7 59 4 165 34 l158 45 -6 56 c-9 71 -64 237 -116 345
-93 195 -249 329 -416 356 -71 12 -822 11 -914 -1z m-815 -2280 c-18 -45 -41
-110 -51 -144 l-18 -62 -41 56 c-23 31 -65 76 -94 100 l-53 45 83 22 c46 13
107 32 134 43 28 11 55 20 62 21 7 0 -2 -32 -22 -81z m-444 -43 c206 -44 330
-208 331 -437 1 -161 -59 -296 -187 -425 -138 -138 -261 -188 -453 -182 -106
3 -123 6 -182 34 -82 39 -133 83 -181 156 -54 84 -73 165 -66 285 6 115 31
195 88 283 94 146 242 245 424 285 79 18 145 18 226 1z"/>
<path d="M1015 3554 c-39 -10 -67 -29 -81 -56 -11 -22 -14 -100 -14 -418 l0
-390 -367 0 c-203 0 -385 -3 -406 -7 -23 -3 -50 -18 -68 -35 -29 -29 -29 -30
-29 -148 0 -118 0 -119 29 -148 18 -17 45 -32 68 -35 21 -4 203 -7 406 -7
l367 0 0 -390 c0 -425 1 -431 56 -460 37 -20 210 -21 247 -1 62 33 62 28 65
458 l3 392 392 3 c430 3 425 3 458 65 19 36 19 210 0 246 -33 62 -28 62 -458
65 l-392 3 -3 392 c-3 425 -2 415 -59 455 -23 16 -169 27 -214 16z"/>
<path d="M4865 3088 c-22 -5 -88 -24 -147 -43 -59 -19 -115 -35 -124 -35 -13
0 -15 -8 -11 -42 17 -127 28 -471 24 -682 -6 -261 -3 -281 48 -329 80 -74 216
-50 268 47 22 40 22 47 22 446 0 285 -4 436 -14 510 -18 140 -17 138 -66 128z"/>
<path d="M3322 703 c3 -481 4 -500 24 -543 27 -57 97 -122 157 -145 58 -22
145 -16 203 13 54 27 120 101 133 148 7 25 11 212 11 532 l0 492 -265 0 -266
0 3 -497z"/>
<path d="M3950 697 l0 -503 26 -52 c29 -59 69 -96 133 -125 90 -40 246 0 305
78 56 73 56 76 56 611 l0 494 -260 0 -260 0 0 -503z"/>
</g>
</svg>
