<?xml version="1.0" standalone="no"?>
<!DOCTYPE svg PUBLIC "-//W3C//DTD SVG 20010904//EN"
 "http://www.w3.org/TR/2001/REC-SVG-20010904/DTD/svg10.dtd">
<svg version="1.0" xmlns="http://www.w3.org/2000/svg"
 width="504.000000pt" height="200.000000pt" viewBox="0 0 504.000000 200.000000"
 preserveAspectRatio="xMidYMid meet">

<g transform="translate(0.000000,200.000000) scale(0.100000,-0.100000)"
fill="#000000" stroke="none">
<path d="M2592 1966 c125 -51 237 -155 299 -278 164 -324 -33 -778 -413 -952
-76 -35 -138 -55 -393 -126 -188 -52 -279 -90 -358 -148 -107 -78 -266 -242
-406 -417 -15 -19 -15 -19 6 -5 12 8 89 63 171 122 l149 108 1696 0 1697 0 0
720 0 720 -1039 0 -1038 0 -27 41 c-62 93 -178 179 -293 218 -86 29 -123 27
-51 -3z m746 -663 c17 -49 189 -516 216 -585 l25 -68 -109 0 -108 0 -14 43
-15 42 -110 3 -111 3 -14 -43 -15 -43 -106 -3 c-59 -1 -107 -1 -107 2 0 4 212
579 239 649 l11 27 104 0 104 0 10 -27z m725 13 c98 -35 152 -117 151 -226 -1
-76 -25 -131 -78 -178 -47 -41 -91 -52 -208 -52 l-98 0 0 -105 0 -105 -105 0
-105 0 0 340 0 340 203 0 c142 -1 213 -5 240 -14z m674 2 c63 -16 137 -87 153
-148 30 -112 -13 -231 -100 -280 -39 -22 -60 -25 -162 -28 l-118 -4 0 -104 0
-104 -105 0 -105 0 0 340 0 340 196 0 c115 0 214 -5 241 -12z"/>
<path d="M3195 1013 c-14 -48 -28 -96 -31 -105 -5 -16 2 -18 55 -18 36 0 61 4
61 11 0 12 -50 192 -55 197 -2 2 -15 -36 -30 -85z"/>
<path d="M3830 1090 l0 -70 68 0 c87 0 112 16 112 70 0 54 -25 70 -112 70
l-68 0 0 -70z"/>
<path d="M4510 1090 l0 -70 73 0 c85 0 105 11 113 61 5 29 2 41 -15 58 -18 18
-33 21 -96 21 l-75 0 0 -70z"/>
<path d="M2330 1923 c-193 -29 -375 -146 -490 -313 -84 -123 -119 -225 -127
-366 -5 -87 -3 -112 17 -175 31 -103 52 -141 114 -203 58 -57 150 -109 226
-125 25 -6 83 -9 130 -7 371 16 692 387 659 762 -8 94 -21 137 -66 215 -87
151 -281 240 -463 212z m60 -23 c9 13 11 13 21 0 7 -10 12 -11 15 -4 10 23
144 -14 144 -39 0 -5 7 -7 15 -3 20 7 65 -14 65 -31 0 -19 -10 -16 -31 9 -11
11 -22 18 -26 15 -3 -4 4 -16 16 -26 l23 -20 -36 -36 -36 -36 -36 36 -35 36
32 30 c17 16 29 32 26 36 -4 3 -20 -9 -37 -27 l-30 -32 -40 42 -40 42 -40 -42
-40 -42 -30 32 c-17 18 -33 30 -37 27 -3 -4 9 -20 26 -36 l32 -30 -35 -36 -36
-36 -36 36 -35 36 31 29 c19 17 29 34 24 41 -5 8 -3 9 6 4 7 -4 15 -3 19 4 10
15 114 30 124 16 4 -6 10 -5 17 5z m-180 -35 c0 -3 -12 -18 -26 -32 -21 -20
-28 -23 -34 -12 -5 7 -12 10 -17 6 -4 -5 -1 -12 6 -16 11 -7 5 -17 -23 -46
l-37 -37 -20 23 c-10 12 -22 19 -26 16 -3 -4 4 -16 16 -26 l23 -20 -36 -36
-36 -36 -27 27 -27 27 52 47 c62 56 212 137 212 115z m265 -70 l75 -75 -35
-35 -35 -36 -36 36 -35 36 32 30 c17 16 29 32 26 36 -4 3 -20 -9 -37 -27 l-30
-32 -30 32 c-17 18 -33 30 -37 27 -3 -4 9 -20 26 -36 l32 -30 -35 -36 -36 -36
-35 36 -35 35 72 74 c40 41 74 75 76 75 1 1 36 -33 77 -74z m258 -51 c-7 -20
-11 -18 -44 17 -16 18 -32 29 -36 26 -3 -4 9 -20 26 -36 l32 -30 -36 -36 -36
-36 -30 32 c-16 17 -32 29 -36 26 -3 -4 9 -20 26 -36 l32 -30 -35 -36 -36 -36
-35 36 -36 35 92 91 91 91 33 -32 c19 -18 31 -39 28 -46z m-498 -29 l75 -75
-35 -35 -35 -36 -36 36 -35 36 32 30 c17 16 29 32 26 36 -4 3 -20 -9 -37 -27
l-30 -32 -30 32 c-17 18 -33 30 -37 27 -3 -4 9 -20 26 -36 l32 -30 -35 -36
-36 -36 -35 36 -35 35 72 74 c40 41 74 75 76 75 1 1 36 -33 77 -74z m544 -19
c12 -18 21 -36 21 -39 0 -3 -18 -24 -40 -47 l-40 -42 -30 32 c-17 18 -33 30
-37 27 -3 -4 9 -20 26 -36 l32 -30 -35 -36 -36 -36 -35 36 -35 35 82 84 c46
46 88 85 95 85 6 1 21 -14 32 -33z m-264 -101 l115 -115 -35 -35 -35 -36 -36
36 -35 36 32 30 c17 16 29 32 26 36 -4 3 -20 -9 -36 -26 l-30 -32 -36 36 -36
36 32 30 c17 16 29 32 26 36 -4 3 -20 -9 -37 -27 l-30 -32 -30 32 c-17 18 -33
30 -37 27 -3 -4 9 -20 26 -36 l32 -30 -35 -36 -36 -36 -35 36 -35 35 72 74
c40 41 74 75 76 75 1 1 54 -51 117 -114z m-510 30 l66 -65 -36 -35 -35 -36
-36 36 -35 36 32 30 c17 16 29 32 26 36 -4 3 -20 -9 -37 -27 l-30 -33 -20 23
c-11 13 -23 20 -27 17 -3 -4 4 -16 16 -26 l23 -20 -37 -37 c-29 -28 -39 -34
-46 -23 -4 7 -11 10 -16 6 -4 -5 -1 -12 6 -17 11 -6 8 -14 -13 -35 -15 -15
-30 -25 -33 -22 -15 15 138 257 163 257 2 0 34 -29 69 -65z m230 -70 l75 -75
-35 -35 -35 -36 -36 36 -35 36 32 30 c17 16 29 32 26 36 -4 3 -20 -9 -37 -27
l-30 -32 -30 32 c-17 18 -33 30 -37 27 -3 -4 9 -20 26 -36 l32 -30 -35 -36
-36 -36 -35 36 -35 35 72 74 c40 41 74 75 76 75 1 1 36 -33 77 -74z m585 48
c8 -17 14 -73 15 -145 2 -96 0 -116 -11 -111 -17 6 -19 -13 -1 -20 9 -4 9 -8
-2 -15 -7 -5 -10 -15 -7 -21 8 -12 -10 -79 -24 -95 -5 -5 -20 3 -35 18 l-26
26 41 40 42 40 -42 40 -41 40 36 36 c29 28 39 34 46 23 4 -7 11 -10 16 -6 4 5
1 12 -7 18 -13 8 -13 10 0 18 8 6 11 13 7 18 -5 4 -12 1 -17 -7 -7 -11 -15 -7
-40 20 -17 18 -33 30 -37 27 -3 -4 9 -20 26 -36 l32 -30 -36 -36 -36 -36 -30
32 c-16 17 -32 29 -36 26 -3 -4 9 -20 26 -36 l32 -30 -35 -36 -36 -36 -35 36
-35 35 112 114 c62 63 116 115 119 115 3 1 12 -11 19 -26z m-825 -128 l75 -75
-35 -35 -35 -36 -36 36 -35 36 32 30 c17 16 29 32 26 36 -4 3 -20 -9 -37 -27
l-30 -32 -30 32 c-17 18 -33 30 -37 27 -3 -4 9 -20 26 -36 l32 -30 -36 -36
-36 -36 -30 32 c-16 17 -32 29 -36 26 -3 -4 9 -20 27 -37 l32 -30 -42 -40 -42
-40 42 -40 42 -40 -42 -40 c-23 -22 -43 -40 -44 -40 -1 0 -3 8 -4 18 -1 9 -5
37 -8 61 -5 31 -3 46 7 52 12 8 12 11 -1 19 -13 9 -13 11 0 20 12 8 12 12 2
18 -9 7 -10 20 -1 65 7 31 16 57 21 57 6 0 8 7 5 14 -4 9 -1 13 6 11 7 -2 41
27 77 65 36 38 66 69 68 69 1 1 36 -33 77 -74z m520 -40 l115 -115 -35 -35
-35 -36 -36 36 -35 36 32 30 c17 16 29 32 26 36 -4 3 -20 -9 -36 -26 l-30 -32
-36 36 -36 36 32 30 c17 16 29 32 26 36 -4 3 -20 -9 -37 -27 l-30 -32 -30 32
c-17 18 -33 30 -37 27 -3 -4 9 -20 26 -36 l32 -30 -35 -36 -36 -36 -35 36 -35
35 72 74 c40 41 74 75 76 75 1 1 54 -51 117 -114z m-280 -40 l75 -75 -35 -35
-35 -36 -36 36 -35 36 32 30 c17 16 29 32 26 36 -4 3 -20 -9 -37 -27 l-30 -32
-30 32 c-17 18 -33 30 -37 27 -3 -4 9 -20 26 -36 l32 -30 -35 -36 -36 -36 -35
36 -35 35 72 74 c40 41 74 75 76 75 1 1 36 -33 77 -74z m-240 -80 l75 -75 -35
-35 -35 -36 -36 36 -35 36 32 30 c17 16 29 32 26 36 -4 3 -20 -9 -37 -27 l-30
-32 -30 32 c-17 18 -33 30 -37 27 -3 -4 9 -20 26 -36 l32 -30 -35 -36 -36 -36
-35 36 -35 35 72 74 c40 41 74 75 76 75 1 1 36 -33 77 -74z m480 0 l75 -75
-35 -35 -35 -36 -36 36 -35 36 32 30 c17 16 29 32 26 36 -4 3 -20 -9 -37 -27
l-30 -32 -30 32 c-17 18 -33 30 -37 27 -3 -4 9 -20 26 -36 l32 -30 -35 -36
-36 -36 -35 36 -35 35 72 74 c40 41 74 75 76 75 1 1 36 -33 77 -74z m281 40
l35 -35 -36 -36 -36 -35 -30 32 c-16 17 -32 29 -36 26 -3 -4 9 -20 26 -36 l32
-30 -36 -36 -36 -36 -30 32 c-16 17 -32 29 -36 26 -3 -4 9 -20 26 -36 l32 -30
-35 -36 -36 -36 -35 36 -35 35 112 114 c62 63 114 115 116 115 1 1 18 -15 38
-34z m-521 -120 l75 -75 -35 -35 -35 -36 -36 36 -35 36 32 30 c17 16 29 32 26
36 -4 3 -20 -9 -37 -27 l-30 -32 -30 32 c-17 18 -33 30 -37 27 -3 -4 9 -20 26
-36 l32 -30 -35 -36 -36 -36 -35 36 -35 35 72 74 c40 41 74 75 76 75 1 1 36
-33 77 -74z m-240 -80 l75 -75 -35 -35 -35 -36 -36 36 -35 36 32 30 c17 16 29
32 26 36 -4 3 -20 -9 -37 -27 l-30 -32 -30 32 c-17 18 -33 30 -37 27 -3 -4 9
-20 26 -36 l32 -30 -36 -36 -36 -36 -30 32 c-16 17 -32 29 -36 26 -3 -4 9 -20
27 -37 28 -26 30 -31 17 -45 -22 -22 -26 -20 -48 30 l-20 45 83 84 c46 46 84
85 86 85 1 1 36 -33 77 -74z m480 0 l75 -75 -35 -35 -35 -36 -36 36 -35 36 32
30 c17 16 29 32 26 36 -4 3 -20 -9 -37 -27 l-30 -32 -30 32 c-17 18 -33 30
-37 27 -3 -4 9 -20 26 -36 l32 -30 -35 -36 -36 -36 -35 36 -35 35 72 74 c40
41 74 75 76 75 1 1 36 -33 77 -74z m276 44 c28 -31 29 -32 12 -60 -10 -16 -21
-29 -26 -29 -5 0 -7 -7 -3 -15 8 -23 0 -18 -39 21 -20 20 -39 34 -42 31 -3 -3
11 -22 31 -42 39 -39 44 -47 21 -39 -8 4 -15 2 -15 -4 0 -6 5 -12 12 -14 7 -3
-28 -44 -77 -93 -49 -49 -91 -83 -93 -77 -2 7 -8 12 -14 12 -6 0 -7 -7 -4 -16
3 -8 2 -12 -4 -9 -5 3 -22 -6 -36 -20 -43 -44 -183 -93 -225 -80 -11 4 -19 2
-19 -5 0 -9 -19 -11 -67 -6 -100 9 -102 10 -97 18 3 5 -9 22 -26 38 l-31 29
35 36 36 36 36 -36 35 -36 -32 -30 c-17 -16 -29 -32 -26 -36 4 -3 20 9 37 27
l30 32 30 -32 c17 -18 33 -30 37 -27 3 4 -9 20 -26 36 l-32 30 35 36 36 36 36
-36 35 -36 -32 -30 c-17 -16 -29 -32 -26 -36 4 -3 20 9 37 27 l30 33 20 -23
c11 -13 23 -20 27 -17 3 4 -4 16 -16 26 l-23 20 36 36 37 36 30 -32 c16 -17
32 -29 36 -26 3 4 -9 20 -26 36 l-32 30 36 36 35 36 40 -41 39 -41 57 56 c31
31 53 59 49 63 -3 4 -10 0 -15 -8 -7 -11 -15 -7 -40 20 -17 18 -33 30 -37 27
-3 -4 9 -20 26 -36 l32 -30 -35 -36 -36 -36 -35 36 -35 35 112 114 c62 63 115
115 116 115 2 1 17 -13 33 -30z m-516 -124 l75 -75 -35 -35 -35 -36 -36 36
-35 36 32 30 c17 16 29 32 26 36 -4 3 -20 -9 -37 -27 l-30 -32 -30 32 c-17 18
-33 30 -37 27 -3 -4 9 -20 26 -36 l32 -30 -35 -36 -36 -36 -35 36 -35 35 72
74 c40 41 74 75 76 75 1 1 36 -33 77 -74z m-240 -80 l75 -75 -35 -35 -35 -36
-36 36 -35 36 32 30 c17 16 29 32 26 36 -4 3 -20 -9 -37 -27 l-30 -32 -30 32
c-17 18 -33 30 -37 27 -3 -4 9 -20 27 -37 l33 -30 -23 -20 c-13 -11 -20 -23
-17 -27 4 -3 16 4 26 16 l20 23 37 -37 c28 -29 34 -39 23 -46 -7 -4 -10 -11
-6 -16 5 -4 12 -1 17 6 6 11 14 8 35 -13 15 -15 25 -30 22 -33 -8 -7 -115 44
-155 75 -18 14 -46 42 -62 63 l-30 37 57 61 c32 33 59 60 61 60 1 1 36 -33 77
-74z m441 40 l34 -35 -75 -75 -75 -75 -35 35 -35 35 72 74 c40 41 74 75 76 75
1 1 18 -15 38 -34z m-240 -80 l35 -35 -36 -35 -35 -36 -35 36 -36 35 33 34
c18 19 34 35 36 35 1 1 18 -15 38 -34z"/>
<path d="M2730 1705 c0 -11 51 -57 57 -52 3 3 -6 17 -20 31 -25 25 -37 32 -37
21z"/>
<path d="M2670 1040 c0 -5 5 -10 10 -10 6 0 10 5 10 10 0 6 -4 10 -10 10 -5 0
-10 -4 -10 -10z"/>
<path d="M2530 900 c0 -5 5 -10 10 -10 6 0 10 5 10 10 0 6 -4 10 -10 10 -5 0
-10 -4 -10 -10z"/>
<path d="M2330 985 c0 -11 51 -57 57 -52 3 3 -6 17 -20 31 -25 25 -37 32 -37
21z"/>
<path d="M1707 781 c-9 -39 -30 -105 -46 -147 -17 -43 -29 -80 -26 -82 2 -2
30 12 62 31 77 47 183 97 206 97 27 0 12 17 -36 41 -23 12 -64 46 -93 75 l-52
54 -15 -69z"/>
</g>
</svg>
