<?xml version="1.0" standalone="no"?>
<!DOCTYPE svg PUBLIC "-//W3C//DTD SVG 20010904//EN"
 "http://www.w3.org/TR/2001/REC-SVG-20010904/DTD/svg10.dtd">
<svg version="1.0" xmlns="http://www.w3.org/2000/svg"
 width="2000.000000pt" height="1999.000000pt" viewBox="0 0 2000.000000 1999.000000"
 preserveAspectRatio="xMidYMid meet">

<g transform="translate(0.000000,1999.000000) scale(0.100000,-0.100000)"
fill="#000000" stroke="none">
<path d="M7015 10340 c615 -149 1071 -402 1486 -826 316 -323 535 -678 678
-1097 322 -947 150 -1997 -485 -2965 -464 -706 -959 -1153 -1659 -1497 -422
-207 -815 -340 -1640 -555 -532 -139 -877 -240 -1270 -372 -506 -170 -805
-327 -1161 -611 -631 -503 -1269 -1171 -1954 -2047 -62 -80 -120 -154 -129
-164 -24 -29 0 -13 94 63 191 155 837 629 1423 1045 l262 186 8670 0 8670 0 0
3700 0 3700 -5302 0 -5303 1 -75 117 c-41 64 -118 171 -171 237 -117 145 -357
381 -497 488 -473 361 -1051 579 -1622 611 l-95 5 80 -19z m4588 -4338 c191
-521 480 -1306 641 -1745 l293 -797 -545 2 -545 3 -82 245 -82 245 -560 3
-561 2 -36 -102 c-20 -57 -58 -168 -85 -248 l-48 -145 -542 -3 c-334 -1 -541
1 -539 7 1 5 291 791 643 1745 l640 1736 530 0 530 0 348 -948z m3028 938 c74
-5 172 -17 217 -25 492 -94 847 -457 927 -948 30 -183 16 -452 -32 -617 -93
-325 -340 -604 -637 -719 -198 -77 -336 -91 -883 -91 l-403 0 0 -540 0 -540
-530 0 -530 0 0 1745 0 1745 868 0 c477 0 928 -5 1003 -10z m3677 -19 c363
-68 621 -235 804 -521 127 -198 187 -455 175 -740 -15 -321 -125 -585 -337
-800 -116 -119 -253 -202 -418 -254 -169 -53 -230 -58 -742 -65 l-475 -6 -3
-537 -2 -538 -530 0 -530 0 0 1746 0 1745 973 -4 c943 -4 975 -5 1085 -26z"/>
<path d="M10559 5267 l-166 -552 164 -3 c89 -1 237 -1 327 0 l163 3 -156 552
c-86 304 -158 553 -161 553 -3 0 -80 -249 -171 -553z"/>
<path d="M13820 5720 l0 -370 254 0 c338 0 441 10 526 53 51 25 73 44 103 87
99 144 80 409 -36 506 -96 81 -170 94 -544 94 l-303 0 0 -370z"/>
<path d="M17312 5723 l3 -368 315 0 c403 1 460 12 544 106 59 64 78 119 84
232 7 145 -14 214 -87 288 -42 42 -72 61 -121 79 -62 23 -78 24 -403 28 l-337
4 2 -369z"/>
<path d="M6335 9984 c-16 -3 -88 -11 -160 -20 -700 -84 -1396 -423 -1959 -954
-593 -559 -1006 -1286 -1151 -2028 -52 -262 -59 -334 -59 -612 -1 -285 8 -394
51 -600 100 -490 310 -888 642 -1221 280 -279 597 -464 996 -579 209 -61 436
-90 705 -90 851 0 1746 409 2420 1106 575 594 937 1317 1053 2104 23 155 28
225 27 433 0 261 -21 450 -76 671 -109 444 -309 810 -608 1111 -133 133 -226
210 -369 303 -376 244 -799 368 -1282 376 -110 2 -213 2 -230 0z m255 -129 c0
-23 3 -25 50 -25 43 0 50 3 50 20 0 24 15 25 160 6 190 -26 460 -94 460 -116
0 -6 14 -10 31 -10 51 0 69 -16 69 -60 l0 -40 49 0 c41 0 50 3 53 19 3 19 4
19 38 1 l35 -19 -37 -1 -38 0 0 -55 0 -55 55 0 55 0 0 45 c0 25 3 45 6 45 4 0
49 -26 100 -57 92 -56 94 -58 94 -95 l0 -38 51 0 c48 0 57 -4 118 -54 36 -30
106 -95 155 -145 l89 -90 -2 -60 -2 -61 50 0 50 0 64 -97 c36 -54 79 -124 97
-155 l32 -58 -41 0 -41 0 0 -50 0 -50 50 0 c48 0 50 1 50 28 l1 27 14 -25 c12
-22 12 -25 -1 -28 -10 -2 -14 -18 -14 -52 l0 -49 38 -3 c34 -3 38 -6 51 -48 8
-25 20 -58 27 -75 45 -110 96 -338 95 -424 -1 -36 3 -68 9 -71 13 -8 30 -148
30 -242 0 -61 -2 -68 -20 -68 -17 0 -20 -7 -20 -50 0 -43 3 -50 20 -50 18 0
20 -6 19 -72 0 -111 -15 -229 -29 -238 -9 -5 -11 -26 -8 -66 3 -33 3 -53 1
-46 -3 7 -24 12 -59 12 l-54 0 0 -50 0 -50 51 0 51 0 -7 -32 c-13 -67 -14 -68
-56 -68 l-39 0 0 -50 c0 -49 1 -50 29 -50 l30 0 -20 -72 c-27 -101 -54 -182
-106 -325 l-45 -123 -44 0 -44 0 0 -49 c0 -42 3 -50 20 -53 18 -3 16 -11 -28
-98 -36 -73 -52 -96 -69 -98 -20 -3 -23 -9 -23 -46 0 -53 -13 -66 -67 -66
l-43 0 0 -49 c0 -37 4 -50 16 -53 13 -3 13 -5 0 -23 -15 -20 -15 -20 -16 3 0
20 -5 22 -50 22 l-50 0 0 -50 c0 -49 1 -50 30 -50 17 0 30 -2 30 -5 0 -3 -12
-24 -27 -47 l-28 -42 -3 47 -3 47 -50 0 -49 0 0 -50 0 -50 50 0 51 0 -62 -82
c-35 -46 -90 -116 -122 -155 -53 -64 -64 -73 -93 -73 -33 0 -34 -1 -34 -39 0
-37 -8 -46 -171 -205 -153 -149 -174 -166 -205 -166 -30 0 -34 -3 -34 -27 0
-23 -16 -40 -98 -101 l-97 -74 -3 46 -3 46 -55 0 -54 0 0 -49 0 -50 46 -3 47
-3 -47 -33 -46 -33 0 35 0 36 -50 0 -50 0 0 -50 c0 -45 2 -50 23 -50 22 -1 22
-1 2 -16 -18 -13 -20 -13 -23 0 -3 12 -16 16 -52 16 l-49 0 -3 -47 -3 -48 -47
-3 c-42 -3 -48 -6 -48 -26 0 -19 -17 -31 -108 -74 -152 -72 -251 -112 -278
-112 -13 0 -24 -4 -24 -10 0 -18 -298 -104 -483 -140 -141 -26 -137 -27 -137
15 l0 35 -50 0 -50 0 0 -44 0 -44 -107 -7 c-129 -9 -404 -1 -525 16 l-88 12 0
33 0 34 -50 0 c-44 0 -50 -2 -50 -21 0 -19 -4 -21 -38 -15 -60 9 -277 81 -377
124 -88 38 -90 40 -93 76 l-3 37 -64 -2 c-63 -2 -64 -2 -165 65 -227 152 -445
366 -590 581 -50 74 -50 75 -25 75 23 0 25 3 25 50 l0 50 -55 0 -55 0 -40 80
c-58 116 -117 268 -156 404 -39 138 -39 136 -19 136 11 0 15 12 15 49 0 47 -2
50 -27 53 -26 3 -28 8 -39 73 -16 94 -34 298 -34 379 l0 66 50 0 50 0 0 50 0
50 -50 0 c-48 0 -50 1 -50 28 0 61 9 72 56 72 l44 0 0 50 0 50 -40 0 c-36 0
-40 2 -40 25 0 75 61 393 101 528 19 63 22 67 49 67 29 0 30 1 30 49 0 33 -4
51 -14 53 -11 2 -11 9 0 38 l12 35 1 -37 1 -38 50 0 50 0 0 50 0 50 -45 0
c-25 0 -45 2 -45 5 0 33 171 405 186 405 8 0 14 10 14 23 0 31 79 169 205 357
116 173 210 294 348 447 81 90 96 103 125 103 29 0 32 3 32 33 0 28 13 44 110
131 206 186 426 346 661 480 64 36 125 66 137 66 12 0 22 5 22 11 0 12 125 71
270 129 149 59 140 58 140 11 l0 -41 50 0 50 0 0 49 c0 39 -4 50 -17 54 -10 2
12 2 49 -1 64 -4 66 -4 70 19 3 21 13 27 73 42 108 27 343 66 449 73 94 7 96
6 96 -15 0 -19 6 -21 50 -21 47 0 50 2 50 25 0 23 3 25 50 25 47 0 50 -2 50
-25z"/>
<path d="M6490 9780 l0 -50 -50 0 -50 0 0 -50 0 -50 -55 0 -55 0 0 -55 0 -55
-50 0 -50 0 0 -50 0 -50 -50 0 -50 0 0 50 0 50 -50 0 -50 0 0 55 0 55 -50 0
-50 0 0 50 0 50 -55 0 -55 0 0 -50 0 -50 55 0 55 0 0 -55 0 -55 50 0 50 0 0
-50 0 -50 50 0 50 0 0 -50 0 -50 -50 0 -50 0 0 -50 0 -50 -50 0 -50 0 0 -55 0
-55 -55 0 -55 0 0 -50 0 -50 -50 0 -50 0 0 50 0 50 -50 0 -50 0 0 55 0 55 -50
0 -50 0 0 50 0 50 -55 0 -55 0 0 50 0 50 55 0 55 0 0 50 0 50 50 0 50 0 0 55
0 55 -50 0 -50 0 0 -55 0 -55 -55 0 -55 0 0 -50 0 -50 -50 0 -50 0 0 50 0 50
-50 0 -50 0 0 -50 0 -50 50 0 50 0 0 -50 0 -50 -50 0 -50 0 0 -50 0 -50 -50 0
-50 0 0 -55 0 -55 -55 0 -55 0 0 -50 0 -50 -50 0 -50 0 0 50 0 50 -50 0 -50 0
0 55 0 55 -50 0 -50 0 0 -55 0 -55 50 0 50 0 0 -50 0 -50 50 0 50 0 0 -50 0
-50 -50 0 -50 0 0 -50 0 -50 -50 0 -50 0 0 -55 0 -55 -55 0 -55 0 0 -50 0 -50
-50 0 -50 0 0 50 0 50 -50 0 -50 0 0 55 0 55 -55 0 -55 0 0 -55 0 -55 55 0 55
0 0 -50 0 -50 50 0 50 0 0 -50 0 -50 -50 0 -50 0 0 -55 0 -55 -55 0 -55 0 0
-50 0 -50 -50 0 -50 0 0 -50 0 -50 -50 0 -50 0 0 50 0 50 -50 0 -50 0 0 50 0
50 -55 0 -55 0 0 -50 0 -50 55 0 55 0 0 -50 0 -50 50 0 50 0 0 -50 0 -50 -50
0 -50 0 0 -55 0 -55 -55 0 -55 0 0 -50 0 -50 -50 0 -50 0 0 -50 0 -50 -50 0
-50 0 0 50 0 50 -50 0 -50 0 0 -50 0 -50 50 0 50 0 0 -50 0 -50 -50 0 -50 0 0
-55 0 -55 -55 0 -55 0 0 -50 0 -50 55 0 55 0 0 50 0 50 50 0 50 0 0 55 0 55
50 0 50 0 0 -55 0 -55 50 0 50 0 0 -50 0 -50 55 0 55 0 0 -50 0 -50 50 0 50 0
0 -50 0 -50 -50 0 -50 0 0 -55 0 -55 -55 0 -55 0 0 -50 0 -50 -50 0 -50 0 0
-50 0 -50 -50 0 -50 0 0 50 0 50 -50 0 -50 0 0 50 0 50 -55 0 -55 0 0 55 0 55
-50 0 -50 0 0 -55 0 -55 50 0 50 0 0 -50 0 -50 55 0 55 0 0 -50 0 -50 50 0 50
0 0 -50 0 -50 -50 0 -50 0 0 -50 0 -50 -55 0 -55 0 0 -55 0 -55 -50 0 -50 0 0
-50 0 -50 -50 0 -50 0 0 -50 0 -50 50 0 50 0 0 -50 0 -50 50 0 50 0 0 -55 0
-55 55 0 55 0 0 -50 0 -50 50 0 50 0 0 -50 0 -50 -50 0 -50 0 0 -50 0 -50 -55
0 -55 0 0 -55 0 -55 -50 0 -50 0 0 -50 0 -50 -50 0 -50 0 0 -50 0 -50 50 0 50
0 0 -50 0 -50 50 0 50 0 0 -55 0 -55 55 0 55 0 0 -50 0 -50 50 0 50 0 0 -50 0
-50 -50 0 -50 0 0 -55 0 -55 50 0 50 0 0 55 0 55 50 0 50 0 0 -55 0 -55 50 0
50 0 0 -50 0 -50 55 0 55 0 0 -50 0 -50 50 0 50 0 0 -50 0 -50 -50 0 -50 0 0
-55 0 -55 -55 0 -55 0 0 -50 0 -50 55 0 55 0 0 50 0 50 50 0 50 0 0 55 0 55
50 0 50 0 0 -55 0 -55 50 0 50 0 0 -50 0 -50 55 0 55 0 0 -50 0 -50 50 0 50 0
0 -50 0 -50 -50 0 -50 0 0 -55 0 -55 50 0 50 0 0 55 0 55 50 0 50 0 0 -55 0
-55 55 0 55 0 0 -50 0 -50 50 0 50 0 0 -50 0 -50 50 0 50 0 0 50 0 50 -50 0
-50 0 0 50 0 50 -50 0 -50 0 0 55 0 55 -55 0 -55 0 0 50 0 50 55 0 55 0 0 50
0 50 50 0 50 0 0 50 0 50 50 0 50 0 0 55 0 55 50 0 50 0 0 -55 0 -55 55 0 55
0 0 -50 0 -50 50 0 50 0 0 -50 0 -50 50 0 50 0 0 -50 0 -50 -50 0 -50 0 0 -55
0 -55 -50 0 -50 0 0 -50 0 -50 -55 0 -55 0 0 -50 0 -50 55 0 55 0 0 50 0 50
50 0 50 0 0 50 0 50 50 0 50 0 0 55 0 55 50 0 50 0 0 -55 0 -55 55 0 55 0 0
-50 0 -50 50 0 50 0 0 -50 0 -50 50 0 50 0 0 50 0 50 -50 0 -50 0 0 50 0 50
-50 0 -50 0 0 55 0 55 -55 0 -55 0 0 50 0 50 55 0 55 0 0 50 0 50 50 0 50 0 0
50 0 50 50 0 50 0 0 55 0 55 50 0 50 0 0 -55 0 -55 55 0 55 0 0 -50 0 -50 50
0 50 0 0 -50 0 -50 50 0 50 0 0 -50 0 -50 -50 0 -50 0 0 -55 0 -55 -50 0 -50
0 0 -50 0 -50 -55 0 -55 0 0 -50 0 -50 55 0 55 0 0 50 0 50 50 0 50 0 0 50 0
50 50 0 50 0 0 55 0 55 50 0 50 0 0 -55 0 -55 50 0 50 0 0 -50 0 -50 55 0 55
0 0 50 0 50 -55 0 -55 0 0 55 0 55 -50 0 -50 0 0 50 0 50 50 0 50 0 0 50 0 50
55 0 55 0 0 50 0 50 50 0 50 0 0 55 0 55 50 0 50 0 0 -55 0 -55 50 0 50 0 0
-50 0 -50 55 0 55 0 0 -50 0 -50 50 0 50 0 0 50 0 50 -50 0 -50 0 0 50 0 50
-55 0 -55 0 0 55 0 55 -50 0 -50 0 0 50 0 50 50 0 50 0 0 50 0 50 55 0 55 0 0
50 0 50 50 0 50 0 0 55 0 55 50 0 50 0 0 -55 0 -55 50 0 50 0 0 -50 0 -50 55
0 55 0 0 -50 0 -50 50 0 50 0 0 -50 0 -50 -50 0 -50 0 0 -55 0 -55 50 0 50 0
0 55 0 55 50 0 50 0 0 50 0 50 50 0 50 0 0 50 0 50 55 0 55 0 0 50 0 50 50 0
50 0 0 55 0 55 50 0 50 0 0 50 0 50 55 0 55 0 0 50 0 50 50 0 50 0 0 55 0 55
-50 0 -50 0 0 -55 0 -55 -55 0 -55 0 0 -50 0 -50 -50 0 -50 0 0 50 0 50 -50 0
-50 0 0 55 0 55 -55 0 -55 0 0 50 0 50 -50 0 -50 0 0 50 0 50 50 0 50 0 0 50
0 50 55 0 55 0 0 55 0 55 50 0 50 0 0 50 0 50 50 0 50 0 0 -50 0 -50 55 0 55
0 0 -55 0 -55 50 0 50 0 0 -50 0 -50 50 0 50 0 0 50 0 50 -50 0 -50 0 0 55 0
55 -50 0 -50 0 0 50 0 50 -55 0 -55 0 0 50 0 50 55 0 55 0 0 50 0 50 50 0 50
0 0 55 0 55 50 0 50 0 0 50 0 50 50 0 50 0 0 -50 0 -50 55 0 55 0 0 -55 0 -55
50 0 50 0 0 55 0 55 -50 0 -50 0 0 50 0 50 -55 0 -55 0 0 50 0 50 55 0 55 0 0
50 0 50 50 0 50 0 0 55 0 55 50 0 50 0 0 50 0 50 50 0 50 0 0 50 0 50 -50 0
-50 0 0 50 0 50 -50 0 -50 0 0 50 0 50 -50 0 -50 0 0 55 0 55 -55 0 -55 0 0
50 0 50 55 0 55 0 0 50 0 50 50 0 50 0 0 50 0 50 50 0 50 0 0 55 0 55 50 0 50
0 0 -55 0 -55 55 0 55 0 0 55 0 55 -55 0 -55 0 0 50 0 50 55 0 55 0 0 50 0 50
-55 0 -55 0 0 -50 0 -50 -50 0 -50 0 0 50 0 50 -50 0 -50 0 0 50 0 50 -50 0
-50 0 0 55 0 55 -55 0 -55 0 0 50 0 50 55 0 55 0 0 50 0 50 50 0 50 0 0 50 0
50 50 0 50 0 0 55 0 55 -50 0 -50 0 0 -55 0 -55 -50 0 -50 0 0 -50 0 -50 -55
0 -55 0 0 -50 0 -50 -50 0 -50 0 0 50 0 50 -50 0 -50 0 0 50 0 50 -50 0 -50 0
0 55 0 55 -55 0 -55 0 0 50 0 50 55 0 55 0 0 50 0 50 50 0 50 0 0 55 0 55 50
0 50 0 0 50 0 50 50 0 50 0 0 -50 0 -50 55 0 55 0 0 -55 0 -55 50 0 50 0 0 55
0 55 -50 0 -50 0 0 50 0 50 -55 0 -55 0 0 50 0 50 -50 0 -50 0 0 50 0 50 -50
0 -50 0 0 55 0 55 -50 0 -50 0 0 50 0 50 -55 0 -55 0 0 50 0 50 -50 0 -50 0 0
50 0 50 -50 0 -50 0 0 -50 0 -50 50 0 50 0 0 -50 0 -50 -50 0 -50 0 0 -50 0
-50 -55 0 -55 0 0 -55 0 -55 -50 0 -50 0 0 -50 0 -50 -50 0 -50 0 0 50 0 50
-50 0 -50 0 0 55 0 55 -55 0 -55 0 0 50 0 50 -50 0 -50 0 0 50 0 50 50 0 50 0
0 50 0 50 55 0 55 0 0 55 0 55 50 0 50 0 0 50 0 50 -50 0 -50 0 0 -50 0 -50
-55 0 -55 0 0 -55 0 -55 -50 0 -50 0 0 -50 0 -50 -50 0 -50 0 0 50 0 50 -50 0
-50 0 0 55 0 55 -55 0 -55 0 0 50 0 50 -50 0 -50 0 0 50 0 50 -50 0 -50 0 0
-50z m100 -100 l0 -50 50 0 50 0 0 -55 0 -55 55 0 55 0 0 -50 0 -50 50 0 50 0
0 -50 0 -50 50 0 50 0 0 -50 0 -50 50 0 50 0 0 -55 0 -55 55 0 55 0 0 -50 0
-50 50 0 50 0 0 -50 0 -50 50 0 50 0 0 50 0 50 50 0 50 0 0 50 0 50 55 0 55 0
0 55 0 55 50 0 50 0 0 50 0 50 50 0 50 0 0 -50 0 -50 55 0 55 0 0 -55 0 -55
50 0 50 0 0 -50 0 -50 50 0 50 0 0 -50 0 -50 -50 0 -50 0 0 -50 0 -50 -50 0
-50 0 0 -55 0 -55 -55 0 -55 0 0 -50 0 -50 -50 0 -50 0 0 -50 0 -50 50 0 50 0
0 -55 0 -55 55 0 55 0 0 -50 0 -50 50 0 50 0 0 -50 0 -50 50 0 50 0 0 -50 0
-50 50 0 50 0 0 -55 0 -55 55 0 55 0 0 -50 0 -50 50 0 50 0 0 -50 0 -50 50 0
50 0 0 -50 0 -50 -50 0 -50 0 0 -55 0 -55 -50 0 -50 0 0 -50 0 -50 -55 0 -55
0 0 -50 0 -50 -50 0 -50 0 0 -50 0 -50 50 0 50 0 0 -55 0 -55 55 0 55 0 0 -50
0 -50 50 0 50 0 0 -50 0 -50 50 0 50 0 0 -50 0 -50 -50 0 -50 0 0 -50 0 -50
-50 0 -50 0 0 -55 0 -55 -55 0 -55 0 0 -50 0 -50 -50 0 -50 0 0 -50 0 -50 -50
0 -50 0 0 -50 0 -50 -50 0 -50 0 0 -55 0 -55 -55 0 -55 0 0 -50 0 -50 -50 0
-50 0 0 -50 0 -50 -50 0 -50 0 0 -50 0 -50 -55 0 -55 0 0 -55 0 -55 -50 0 -50
0 0 -50 0 -50 -50 0 -50 0 0 -50 0 -50 50 0 50 0 0 -50 0 -50 50 0 50 0 0 -55
0 -55 55 0 55 0 0 -50 0 -50 50 0 50 0 0 -50 0 -50 -50 0 -50 0 0 -55 0 -55
-55 0 -55 0 0 -50 0 -50 -50 0 -50 0 0 -50 0 -50 -50 0 -50 0 0 50 0 50 -50 0
-50 0 0 50 0 50 -55 0 -55 0 0 55 0 55 -50 0 -50 0 0 50 0 50 -50 0 -50 0 0
-50 0 -50 -50 0 -50 0 0 -55 0 -55 -55 0 -55 0 0 -50 0 -50 -50 0 -50 0 0 -50
0 -50 -50 0 -50 0 0 -50 0 -50 -50 0 -50 0 0 -55 0 -55 -55 0 -55 0 0 -50 0
-50 -50 0 -50 0 0 -50 0 -50 -50 0 -50 0 0 50 0 50 -50 0 -50 0 0 50 0 50 -50
0 -50 0 0 55 0 55 -55 0 -55 0 0 50 0 50 -50 0 -50 0 0 -50 0 -50 -50 0 -50 0
0 -55 0 -55 -50 0 -50 0 0 -50 0 -50 -55 0 -55 0 0 -50 0 -50 -50 0 -50 0 0
50 0 50 -50 0 -50 0 0 50 0 50 -50 0 -50 0 0 55 0 55 -55 0 -55 0 0 50 0 50
-50 0 -50 0 0 -50 0 -50 -50 0 -50 0 0 -55 0 -55 -50 0 -50 0 0 -50 0 -50 -55
0 -55 0 0 -50 0 -50 -50 0 -50 0 0 50 0 50 -50 0 -50 0 0 50 0 50 -55 0 -55 0
0 55 0 55 -50 0 -50 0 0 50 0 50 -50 0 -50 0 0 50 0 50 -50 0 -50 0 0 50 0 50
-55 0 -55 0 0 55 0 55 -50 0 -50 0 0 50 0 50 -50 0 -50 0 0 50 0 50 -50 0 -50
0 0 55 0 55 -55 0 -55 0 0 50 0 50 -50 0 -50 0 0 50 0 50 50 0 50 0 0 50 0 50
55 0 55 0 0 55 0 55 50 0 50 0 0 50 0 50 50 0 50 0 0 50 0 50 -50 0 -50 0 0
50 0 50 -50 0 -50 0 0 55 0 55 -55 0 -55 0 0 50 0 50 -50 0 -50 0 0 50 0 50
50 0 50 0 0 50 0 50 55 0 55 0 0 55 0 55 50 0 50 0 0 50 0 50 50 0 50 0 0 50
0 50 50 0 50 0 0 50 0 50 55 0 55 0 0 50 0 50 50 0 50 0 0 55 0 55 50 0 50 0
0 50 0 50 -50 0 -50 0 0 50 0 50 -50 0 -50 0 0 50 0 50 -55 0 -55 0 0 55 0 55
-50 0 -50 0 0 50 0 50 50 0 50 0 0 50 0 50 55 0 55 0 0 50 0 50 50 0 50 0 0
55 0 55 50 0 50 0 0 50 0 50 50 0 50 0 0 50 0 50 55 0 55 0 0 50 0 50 50 0 50
0 0 55 0 55 50 0 50 0 0 50 0 50 55 0 55 0 0 50 0 50 50 0 50 0 0 55 0 55 50
0 50 0 0 50 0 50 50 0 50 0 0 50 0 50 55 0 55 0 0 50 0 50 50 0 50 0 0 55 0
55 50 0 50 0 0 50 0 50 50 0 50 0 0 -50 0 -50 55 0 55 0 0 -55 0 -55 50 0 50
0 0 -50 0 -50 50 0 50 0 0 -50 0 -50 50 0 50 0 0 50 0 50 55 0 55 0 0 50 0 50
50 0 50 0 0 55 0 55 50 0 50 0 0 50 0 50 50 0 50 0 0 50 0 50 50 0 50 0 0 50
0 50 55 0 55 0 0 55 0 55 50 0 50 0 0 50 0 50 50 0 50 0 0 -50z"/>
<path d="M6180 9270 l0 -50 50 0 50 0 0 -55 0 -55 55 0 55 0 0 -50 0 -50 50 0
50 0 0 -50 0 -50 -50 0 -50 0 0 -50 0 -50 -55 0 -55 0 0 -55 0 -55 -50 0 -50
0 0 -50 0 -50 -50 0 -50 0 0 50 0 50 -50 0 -50 0 0 55 0 55 -50 0 -50 0 0 50
0 50 -55 0 -55 0 0 -50 0 -50 55 0 55 0 0 -55 0 -55 50 0 50 0 0 -50 0 -50 50
0 50 0 0 -50 0 -50 -50 0 -50 0 0 -55 0 -55 -50 0 -50 0 0 -50 0 -50 -55 0
-55 0 0 -50 0 -50 -50 0 -50 0 0 50 0 50 -50 0 -50 0 0 50 0 50 -50 0 -50 0 0
55 0 55 -55 0 -55 0 0 50 0 50 55 0 55 0 0 50 0 50 50 0 50 0 0 55 0 55 50 0
50 0 0 50 0 50 -50 0 -50 0 0 -50 0 -50 -50 0 -50 0 0 -55 0 -55 -55 0 -55 0
0 -50 0 -50 -50 0 -50 0 0 50 0 50 -50 0 -50 0 0 55 0 55 -50 0 -50 0 0 50 0
50 -55 0 -55 0 0 -50 0 -50 55 0 55 0 0 -55 0 -55 50 0 50 0 0 -50 0 -50 50 0
50 0 0 -50 0 -50 -50 0 -50 0 0 -55 0 -55 -50 0 -50 0 0 -50 0 -50 -55 0 -55
0 0 -50 0 -50 -50 0 -50 0 0 50 0 50 -50 0 -50 0 0 50 0 50 -50 0 -50 0 0 55
0 55 -55 0 -55 0 0 -55 0 -55 55 0 55 0 0 -50 0 -50 50 0 50 0 0 -50 0 -50 50
0 50 0 0 -50 0 -50 -50 0 -50 0 0 -55 0 -55 -50 0 -50 0 0 -50 0 -50 -55 0
-55 0 0 -50 0 -50 -50 0 -50 0 0 50 0 50 -50 0 -50 0 0 50 0 50 -55 0 -55 0 0
55 0 55 -50 0 -50 0 0 -55 0 -55 50 0 50 0 0 -50 0 -50 55 0 55 0 0 -50 0 -50
50 0 50 0 0 -50 0 -50 -50 0 -50 0 0 -55 0 -55 -55 0 -55 0 0 -50 0 -50 -50 0
-50 0 0 -50 0 -50 50 0 50 0 0 50 0 50 55 0 55 0 0 50 0 50 50 0 50 0 0 55 0
55 50 0 50 0 0 -55 0 -55 55 0 55 0 0 -50 0 -50 50 0 50 0 0 -50 0 -50 50 0
50 0 0 -50 0 -50 -50 0 -50 0 0 -55 0 -55 -50 0 -50 0 0 -50 0 -50 -55 0 -55
0 0 -50 0 -50 -50 0 -50 0 0 50 0 50 -50 0 -50 0 0 50 0 50 -55 0 -55 0 0 55
0 55 -50 0 -50 0 0 -55 0 -55 50 0 50 0 0 -50 0 -50 55 0 55 0 0 -50 0 -50 50
0 50 0 0 -50 0 -50 -50 0 -50 0 0 -50 0 -50 -55 0 -55 0 0 -55 0 -55 -50 0
-50 0 0 -50 0 -50 -50 0 -50 0 0 50 0 50 -50 0 -50 0 0 55 0 55 -55 0 -55 0 0
50 0 50 -50 0 -50 0 0 -50 0 -50 50 0 50 0 0 -55 0 -55 55 0 55 0 0 -50 0 -50
50 0 50 0 0 -50 0 -50 -50 0 -50 0 0 -50 0 -50 -55 0 -55 0 0 -55 0 -55 -50 0
-50 0 0 -50 0 -50 50 0 50 0 0 50 0 50 55 0 55 0 0 55 0 55 50 0 50 0 0 50 0
50 50 0 50 0 0 -50 0 -50 50 0 50 0 0 -55 0 -55 55 0 55 0 0 -50 0 -50 50 0
50 0 0 -50 0 -50 -50 0 -50 0 0 -50 0 -50 -55 0 -55 0 0 -55 0 -55 -50 0 -50
0 0 -50 0 -50 -50 0 -50 0 0 50 0 50 -50 0 -50 0 0 55 0 55 -55 0 -55 0 0 50
0 50 -50 0 -50 0 0 -50 0 -50 50 0 50 0 0 -55 0 -55 55 0 55 0 0 -50 0 -50 50
0 50 0 0 -50 0 -50 -50 0 -50 0 0 -50 0 -50 -55 0 -55 0 0 -55 0 -55 -50 0
-50 0 0 -50 0 -50 50 0 50 0 0 50 0 50 55 0 55 0 0 55 0 55 50 0 50 0 0 50 0
50 50 0 50 0 0 -50 0 -50 50 0 50 0 0 -55 0 -55 55 0 55 0 0 -50 0 -50 50 0
50 0 0 -50 0 -50 -50 0 -50 0 0 -55 0 -55 -55 0 -55 0 0 -50 0 -50 -50 0 -50
0 0 -50 0 -50 50 0 50 0 0 50 0 50 55 0 55 0 0 50 0 50 50 0 50 0 0 55 0 55
50 0 50 0 0 -55 0 -55 55 0 55 0 0 -50 0 -50 50 0 50 0 0 -50 0 -50 50 0 50 0
0 50 0 50 -50 0 -50 0 0 50 0 50 -50 0 -50 0 0 55 0 55 -55 0 -55 0 0 50 0 50
55 0 55 0 0 50 0 50 50 0 50 0 0 55 0 55 50 0 50 0 0 50 0 50 50 0 50 0 0 -50
0 -50 55 0 55 0 0 -55 0 -55 50 0 50 0 0 -50 0 -50 50 0 50 0 0 -50 0 -50 -50
0 -50 0 0 -55 0 -55 -50 0 -50 0 0 -50 0 -50 -55 0 -55 0 0 -50 0 -50 55 0 55
0 0 50 0 50 50 0 50 0 0 50 0 50 50 0 50 0 0 55 0 55 50 0 50 0 0 -55 0 -55
55 0 55 0 0 -50 0 -50 50 0 50 0 0 -50 0 -50 50 0 50 0 0 50 0 50 -50 0 -50 0
0 50 0 50 -50 0 -50 0 0 55 0 55 -55 0 -55 0 0 50 0 50 55 0 55 0 0 50 0 50
50 0 50 0 0 55 0 55 50 0 50 0 0 50 0 50 50 0 50 0 0 -50 0 -50 55 0 55 0 0
-55 0 -55 50 0 50 0 0 -50 0 -50 50 0 50 0 0 -50 0 -50 -50 0 -50 0 0 -55 0
-55 -50 0 -50 0 0 -50 0 -50 -55 0 -55 0 0 -50 0 -50 55 0 55 0 0 50 0 50 50
0 50 0 0 50 0 50 50 0 50 0 0 55 0 55 50 0 50 0 0 -55 0 -55 50 0 50 0 0 -50
0 -50 55 0 55 0 0 -50 0 -50 50 0 50 0 0 50 0 50 -50 0 -50 0 0 50 0 50 -55 0
-55 0 0 55 0 55 -50 0 -50 0 0 50 0 50 50 0 50 0 0 50 0 50 55 0 55 0 0 55 0
55 50 0 50 0 0 50 0 50 50 0 50 0 0 -50 0 -50 50 0 50 0 0 -55 0 -55 55 0 55
0 0 -50 0 -50 50 0 50 0 0 50 0 50 -50 0 -50 0 0 55 0 55 -55 0 -55 0 0 50 0
50 -50 0 -50 0 0 50 0 50 50 0 50 0 0 50 0 50 55 0 55 0 0 55 0 55 50 0 50 0
0 50 0 50 50 0 50 0 0 -50 0 -50 50 0 50 0 0 -55 0 -55 55 0 55 0 0 -50 0 -50
50 0 50 0 0 50 0 50 -50 0 -50 0 0 55 0 55 -55 0 -55 0 0 50 0 50 -50 0 -50 0
0 50 0 50 50 0 50 0 0 50 0 50 55 0 55 0 0 55 0 55 50 0 50 0 0 50 0 50 50 0
50 0 0 -50 0 -50 50 0 50 0 0 -55 0 -55 55 0 55 0 0 -50 0 -50 50 0 50 0 0 50
0 50 -50 0 -50 0 0 55 0 55 -55 0 -55 0 0 50 0 50 -50 0 -50 0 0 50 0 50 50 0
50 0 0 50 0 50 55 0 55 0 0 55 0 55 50 0 50 0 0 50 0 50 50 0 50 0 0 -50 0
-50 55 0 55 0 0 -55 0 -55 50 0 50 0 0 -50 0 -50 50 0 50 0 0 50 0 50 -50 0
-50 0 0 55 0 55 -50 0 -50 0 0 50 0 50 -55 0 -55 0 0 50 0 50 55 0 55 0 0 50
0 50 50 0 50 0 0 50 0 50 50 0 50 0 0 55 0 55 -50 0 -50 0 0 -55 0 -55 -50 0
-50 0 0 -50 0 -50 -55 0 -55 0 0 -50 0 -50 -50 0 -50 0 0 50 0 50 -50 0 -50 0
0 50 0 50 -55 0 -55 0 0 55 0 55 -50 0 -50 0 0 50 0 50 50 0 50 0 0 50 0 50
55 0 55 0 0 50 0 50 50 0 50 0 0 55 0 55 50 0 50 0 0 -55 0 -55 55 0 55 0 0
-50 0 -50 50 0 50 0 0 -50 0 -50 50 0 50 0 0 50 0 50 -50 0 -50 0 0 50 0 50
-50 0 -50 0 0 55 0 55 -55 0 -55 0 0 50 0 50 55 0 55 0 0 50 0 50 50 0 50 0 0
50 0 50 50 0 50 0 0 55 0 55 -50 0 -50 0 0 -55 0 -55 -50 0 -50 0 0 -50 0 -50
-55 0 -55 0 0 -50 0 -50 -50 0 -50 0 0 50 0 50 -50 0 -50 0 0 50 0 50 -55 0
-55 0 0 55 0 55 -50 0 -50 0 0 50 0 50 50 0 50 0 0 50 0 50 55 0 55 0 0 50 0
50 50 0 50 0 0 55 0 55 -50 0 -50 0 0 -55 0 -55 -55 0 -55 0 0 -50 0 -50 -50
0 -50 0 0 -50 0 -50 -50 0 -50 0 0 50 0 50 -50 0 -50 0 0 50 0 50 -55 0 -55 0
0 55 0 55 -50 0 -50 0 0 50 0 50 50 0 50 0 0 50 0 50 55 0 55 0 0 55 0 55 50
0 50 0 0 50 0 50 -50 0 -50 0 0 -50 0 -50 -55 0 -55 0 0 -55 0 -55 -50 0 -50
0 0 -50 0 -50 -50 0 -50 0 0 50 0 50 -50 0 -50 0 0 55 0 55 -55 0 -55 0 0 50
0 50 -50 0 -50 0 0 50 0 50 50 0 50 0 0 50 0 50 55 0 55 0 0 55 0 55 50 0 50
0 0 50 0 50 -50 0 -50 0 0 -50 0 -50 -55 0 -55 0 0 -55 0 -55 -50 0 -50 0 0
-50 0 -50 -50 0 -50 0 0 50 0 50 -50 0 -50 0 0 55 0 55 -55 0 -55 0 0 50 0 50
-50 0 -50 0 0 -50z m410 -410 l0 -50 50 0 50 0 0 -55 0 -55 55 0 55 0 0 -50 0
-50 50 0 50 0 0 -50 0 -50 50 0 50 0 0 -55 0 -55 50 0 50 0 0 -50 0 -50 55 0
55 0 0 -50 0 -50 50 0 50 0 0 -50 0 -50 50 0 50 0 0 -55 0 -55 50 0 50 0 0
-50 0 -50 55 0 55 0 0 -50 0 -50 50 0 50 0 0 -50 0 -50 -50 0 -50 0 0 -55 0
-55 -55 0 -55 0 0 -50 0 -50 -50 0 -50 0 0 -50 0 -50 -50 0 -50 0 0 -50 0 -50
50 0 50 0 0 -55 0 -55 50 0 50 0 0 -50 0 -50 55 0 55 0 0 -50 0 -50 50 0 50 0
0 -50 0 -50 -50 0 -50 0 0 -50 0 -50 -55 0 -55 0 0 -55 0 -55 -50 0 -50 0 0
-50 0 -50 -50 0 -50 0 0 -50 0 -50 -50 0 -50 0 0 -50 0 -50 -55 0 -55 0 0 -55
0 -55 -50 0 -50 0 0 -50 0 -50 -50 0 -50 0 0 -50 0 -50 -50 0 -50 0 0 -50 0
-50 -55 0 -55 0 0 -55 0 -55 -50 0 -50 0 0 -50 0 -50 -50 0 -50 0 0 -50 0 -50
-50 0 -50 0 0 -50 0 -50 -55 0 -55 0 0 -55 0 -55 -50 0 -50 0 0 -50 0 -50 -50
0 -50 0 0 50 0 50 -50 0 -50 0 0 55 0 55 -50 0 -50 0 0 50 0 50 -55 0 -55 0 0
50 0 50 -50 0 -50 0 0 -50 0 -50 -50 0 -50 0 0 -50 0 -50 -50 0 -50 0 0 -55 0
-55 -55 0 -55 0 0 -50 0 -50 -50 0 -50 0 0 50 0 50 -50 0 -50 0 0 55 0 55 -50
0 -50 0 0 50 0 50 -55 0 -55 0 0 50 0 50 -50 0 -50 0 0 -50 0 -50 -50 0 -50 0
0 -50 0 -50 -50 0 -50 0 0 -55 0 -55 -55 0 -55 0 0 -50 0 -50 -50 0 -50 0 0
50 0 50 -50 0 -50 0 0 55 0 55 -55 0 -55 0 0 50 0 50 -50 0 -50 0 0 50 0 50
50 0 50 0 0 50 0 50 55 0 55 0 0 55 0 55 50 0 50 0 0 50 0 50 50 0 50 0 0 50
0 50 -50 0 -50 0 0 50 0 50 -50 0 -50 0 0 55 0 55 -55 0 -55 0 0 50 0 50 -50
0 -50 0 0 50 0 50 50 0 50 0 0 50 0 50 55 0 55 0 0 55 0 55 50 0 50 0 0 50 0
50 50 0 50 0 0 50 0 50 55 0 55 0 0 50 0 50 50 0 50 0 0 50 0 50 50 0 50 0 0
55 0 55 50 0 50 0 0 50 0 50 -50 0 -50 0 0 50 0 50 -50 0 -50 0 0 50 0 50 -50
0 -50 0 0 55 0 55 -55 0 -55 0 0 50 0 50 55 0 55 0 0 50 0 50 50 0 50 0 0 50
0 50 50 0 50 0 0 55 0 55 50 0 50 0 0 50 0 50 55 0 55 0 0 50 0 50 50 0 50 0
0 50 0 50 50 0 50 0 0 55 0 55 50 0 50 0 0 -55 0 -55 55 0 55 0 0 -50 0 -50
50 0 50 0 0 -50 0 -50 50 0 50 0 0 -50 0 -50 50 0 50 0 0 50 0 50 55 0 55 0 0
50 0 50 50 0 50 0 0 50 0 50 50 0 50 0 0 55 0 55 50 0 50 0 0 50 0 50 50 0 50
0 0 50 0 50 55 0 55 0 0 55 0 55 50 0 50 0 0 50 0 50 50 0 50 0 0 -50z"/>
<path d="M6180 8445 l0 -55 50 0 50 0 0 -50 0 -50 55 0 55 0 0 -50 0 -50 50 0
50 0 0 -50 0 -50 -50 0 -50 0 0 -55 0 -55 -55 0 -55 0 0 -50 0 -50 -50 0 -50
0 0 -50 0 -50 -50 0 -50 0 0 50 0 50 -50 0 -50 0 0 50 0 50 -50 0 -50 0 0 55
0 55 -55 0 -55 0 0 -55 0 -55 55 0 55 0 0 -50 0 -50 50 0 50 0 0 -50 0 -50 50
0 50 0 0 -50 0 -50 -50 0 -50 0 0 -55 0 -55 -50 0 -50 0 0 -50 0 -50 -55 0
-55 0 0 -50 0 -50 -50 0 -50 0 0 50 0 50 -50 0 -50 0 0 50 0 50 -50 0 -50 0 0
55 0 55 -55 0 -55 0 0 50 0 50 55 0 55 0 0 50 0 50 50 0 50 0 0 50 0 50 50 0
50 0 0 55 0 55 -50 0 -50 0 0 -55 0 -55 -50 0 -50 0 0 -50 0 -50 -55 0 -55 0
0 -50 0 -50 -50 0 -50 0 0 50 0 50 -50 0 -50 0 0 50 0 50 -50 0 -50 0 0 55 0
55 -55 0 -55 0 0 -55 0 -55 55 0 55 0 0 -50 0 -50 50 0 50 0 0 -50 0 -50 50 0
50 0 0 -50 0 -50 -50 0 -50 0 0 -55 0 -55 -50 0 -50 0 0 -50 0 -50 -55 0 -55
0 0 -50 0 -50 55 0 55 0 0 50 0 50 50 0 50 0 0 50 0 50 50 0 50 0 0 55 0 55
50 0 50 0 0 -55 0 -55 55 0 55 0 0 -50 0 -50 50 0 50 0 0 -50 0 -50 50 0 50 0
0 -50 0 -50 -50 0 -50 0 0 -55 0 -55 -50 0 -50 0 0 -50 0 -50 -55 0 -55 0 0
-50 0 -50 -50 0 -50 0 0 50 0 50 -50 0 -50 0 0 50 0 50 -50 0 -50 0 0 55 0 55
-55 0 -55 0 0 -55 0 -55 55 0 55 0 0 -50 0 -50 50 0 50 0 0 -50 0 -50 50 0 50
0 0 -50 0 -50 -50 0 -50 0 0 -50 0 -50 -50 0 -50 0 0 -55 0 -55 -55 0 -55 0 0
-50 0 -50 -50 0 -50 0 0 50 0 50 -50 0 -50 0 0 55 0 55 -50 0 -50 0 0 50 0 50
-55 0 -55 0 0 -50 0 -50 55 0 55 0 0 -55 0 -55 50 0 50 0 0 -50 0 -50 50 0 50
0 0 -50 0 -50 -50 0 -50 0 0 -50 0 -50 -50 0 -50 0 0 -55 0 -55 -55 0 -55 0 0
-50 0 -50 55 0 55 0 0 50 0 50 50 0 50 0 0 55 0 55 50 0 50 0 0 50 0 50 50 0
50 0 0 -50 0 -50 55 0 55 0 0 -55 0 -55 50 0 50 0 0 -50 0 -50 50 0 50 0 0
-50 0 -50 -50 0 -50 0 0 -50 0 -50 -50 0 -50 0 0 -55 0 -55 -55 0 -55 0 0 -50
0 -50 55 0 55 0 0 50 0 50 50 0 50 0 0 55 0 55 50 0 50 0 0 50 0 50 50 0 50 0
0 -50 0 -50 55 0 55 0 0 -55 0 -55 50 0 50 0 0 -50 0 -50 50 0 50 0 0 50 0 50
-50 0 -50 0 0 55 0 55 -50 0 -50 0 0 50 0 50 -55 0 -55 0 0 50 0 50 55 0 55 0
0 50 0 50 50 0 50 0 0 55 0 55 50 0 50 0 0 50 0 50 50 0 50 0 0 -50 0 -50 55
0 55 0 0 -55 0 -55 50 0 50 0 0 -50 0 -50 50 0 50 0 0 -50 0 -50 -50 0 -50 0
0 -50 0 -50 -50 0 -50 0 0 -55 0 -55 -55 0 -55 0 0 -50 0 -50 55 0 55 0 0 50
0 50 50 0 50 0 0 55 0 55 50 0 50 0 0 50 0 50 50 0 50 0 0 -50 0 -50 50 0 50
0 0 -55 0 -55 55 0 55 0 0 -50 0 -50 50 0 50 0 0 50 0 50 -50 0 -50 0 0 55 0
55 -55 0 -55 0 0 50 0 50 -50 0 -50 0 0 50 0 50 50 0 50 0 0 50 0 50 55 0 55
0 0 55 0 55 50 0 50 0 0 50 0 50 50 0 50 0 0 -50 0 -50 50 0 50 0 0 -55 0 -55
55 0 55 0 0 -50 0 -50 50 0 50 0 0 50 0 50 -50 0 -50 0 0 55 0 55 -55 0 -55 0
0 50 0 50 -50 0 -50 0 0 50 0 50 50 0 50 0 0 50 0 50 55 0 55 0 0 55 0 55 50
0 50 0 0 50 0 50 50 0 50 0 0 -50 0 -50 50 0 50 0 0 -55 0 -55 55 0 55 0 0
-50 0 -50 50 0 50 0 0 50 0 50 -50 0 -50 0 0 55 0 55 -55 0 -55 0 0 50 0 50
-50 0 -50 0 0 50 0 50 50 0 50 0 0 50 0 50 55 0 55 0 0 50 0 50 50 0 50 0 0
55 0 55 -50 0 -50 0 0 -55 0 -55 -55 0 -55 0 0 -50 0 -50 -50 0 -50 0 0 -50 0
-50 -50 0 -50 0 0 50 0 50 -50 0 -50 0 0 50 0 50 -55 0 -55 0 0 55 0 55 -50 0
-50 0 0 50 0 50 50 0 50 0 0 50 0 50 55 0 55 0 0 50 0 50 50 0 50 0 0 55 0 55
50 0 50 0 0 -55 0 -55 50 0 50 0 0 -50 0 -50 55 0 55 0 0 -50 0 -50 50 0 50 0
0 50 0 50 -50 0 -50 0 0 50 0 50 -55 0 -55 0 0 55 0 55 -50 0 -50 0 0 50 0 50
50 0 50 0 0 50 0 50 55 0 55 0 0 50 0 50 50 0 50 0 0 55 0 55 -50 0 -50 0 0
-55 0 -55 -55 0 -55 0 0 -50 0 -50 -50 0 -50 0 0 -50 0 -50 -50 0 -50 0 0 50
0 50 -50 0 -50 0 0 50 0 50 -55 0 -55 0 0 55 0 55 -50 0 -50 0 0 50 0 50 50 0
50 0 0 50 0 50 55 0 55 0 0 50 0 50 50 0 50 0 0 55 0 55 -50 0 -50 0 0 -55 0
-55 -55 0 -55 0 0 -50 0 -50 -50 0 -50 0 0 -50 0 -50 -50 0 -50 0 0 50 0 50
-50 0 -50 0 0 50 0 50 -55 0 -55 0 0 55 0 55 -50 0 -50 0 0 -55z m410 -410 l0
-55 50 0 50 0 0 -50 0 -50 55 0 55 0 0 -50 0 -50 50 0 50 0 0 -50 0 -50 -50 0
-50 0 0 -55 0 -55 -55 0 -55 0 0 -50 0 -50 -50 0 -50 0 0 -50 0 -50 -50 0 -50
0 0 -50 0 -50 50 0 50 0 0 -55 0 -55 50 0 50 0 0 -50 0 -50 55 0 55 0 0 -50 0
-50 50 0 50 0 0 -50 0 -50 -50 0 -50 0 0 -50 0 -50 -55 0 -55 0 0 -55 0 -55
-50 0 -50 0 0 -50 0 -50 -50 0 -50 0 0 -50 0 -50 -50 0 -50 0 0 -50 0 -50 -55
0 -55 0 0 -55 0 -55 -50 0 -50 0 0 -50 0 -50 -50 0 -50 0 0 50 0 50 -50 0 -50
0 0 55 0 55 -50 0 -50 0 0 50 0 50 -55 0 -55 0 0 50 0 50 -50 0 -50 0 0 -50 0
-50 -50 0 -50 0 0 -50 0 -50 -50 0 -50 0 0 -55 0 -55 -55 0 -55 0 0 -50 0 -50
-50 0 -50 0 0 50 0 50 -50 0 -50 0 0 55 0 55 -50 0 -50 0 0 50 0 50 -55 0 -55
0 0 50 0 50 55 0 55 0 0 50 0 50 50 0 50 0 0 55 0 55 50 0 50 0 0 50 0 50 50
0 50 0 0 50 0 50 55 0 55 0 0 50 0 50 50 0 50 0 0 50 0 50 50 0 50 0 0 55 0
55 50 0 50 0 0 50 0 50 55 0 55 0 0 50 0 50 50 0 50 0 0 50 0 50 50 0 50 0 0
55 0 55 50 0 50 0 0 50 0 50 50 0 50 0 0 50 0 50 55 0 55 0 0 50 0 50 50 0 50
0 0 55 0 55 50 0 50 0 0 -55z"/>
<path d="M6180 7625 l0 -55 50 0 50 0 0 -50 0 -50 55 0 55 0 0 -50 0 -50 50 0
50 0 0 50 0 50 -50 0 -50 0 0 50 0 50 -55 0 -55 0 0 55 0 55 -50 0 -50 0 0
-55z"/>
<path d="M5770 7215 l0 -55 55 0 55 0 0 -50 0 -50 50 0 50 0 0 -50 0 -50 50 0
50 0 0 -50 0 -50 -50 0 -50 0 0 -50 0 -50 -50 0 -50 0 0 -55 0 -55 -55 0 -55
0 0 -50 0 -50 55 0 55 0 0 50 0 50 50 0 50 0 0 55 0 55 50 0 50 0 0 50 0 50
50 0 50 0 0 -50 0 -50 50 0 50 0 0 -55 0 -55 55 0 55 0 0 -50 0 -50 50 0 50 0
0 50 0 50 -50 0 -50 0 0 55 0 55 -55 0 -55 0 0 50 0 50 -50 0 -50 0 0 50 0 50
50 0 50 0 0 50 0 50 55 0 55 0 0 50 0 50 50 0 50 0 0 55 0 55 -50 0 -50 0 0
-55 0 -55 -55 0 -55 0 0 -50 0 -50 -50 0 -50 0 0 -50 0 -50 -50 0 -50 0 0 50
0 50 -50 0 -50 0 0 50 0 50 -50 0 -50 0 0 55 0 55 -55 0 -55 0 0 -55z"/>
<path d="M5360 6810 l0 -50 55 0 55 0 0 -55 0 -55 50 0 50 0 0 -50 0 -50 50 0
50 0 0 50 0 50 -50 0 -50 0 0 55 0 55 -50 0 -50 0 0 50 0 50 -55 0 -55 0 0
-50z"/>
<path d="M4540 5990 l0 -50 55 0 55 0 0 -55 0 -55 50 0 50 0 0 -50 0 -50 50 0
50 0 0 50 0 50 -50 0 -50 0 0 55 0 55 -50 0 -50 0 0 50 0 50 -55 0 -55 0 0
-50z"/>
<path d="M7410 8860 l0 -50 50 0 50 0 0 -55 0 -55 55 0 55 0 0 -50 0 -50 50 0
50 0 0 50 0 50 -50 0 -50 0 0 55 0 55 -55 0 -55 0 0 50 0 50 -50 0 -50 0 0
-50z"/>
<path d="M7210 5580 l0 -50 -55 0 -55 0 0 -55 0 -55 -50 0 -50 0 0 -50 0 -50
50 0 50 0 0 50 0 50 55 0 55 0 0 55 0 55 50 0 50 0 0 50 0 50 -50 0 -50 0 0
-50z"/>
<path d="M3033 4467 c-2 -267 -134 -729 -397 -1381 -41 -104 -74 -191 -73
-193 2 -1 39 21 83 49 383 246 868 510 1124 611 137 54 223 78 310 86 l64 6
-179 100 c-421 236 -525 323 -824 695 -51 63 -96 118 -100 122 -4 4 -7 -38 -8
-95z"/>
<path d="M4225 1160 c-98 -21 -164 -63 -203 -129 -21 -36 -26 -57 -26 -110 1
-128 46 -170 251 -237 79 -25 153 -54 165 -63 32 -26 18 -68 -29 -88 -72 -30
-159 2 -177 66 l-9 31 -118 0 c-135 0 -131 4 -104 -88 29 -98 109 -161 236
-188 128 -27 265 -5 356 57 110 76 127 268 31 355 -39 37 -93 60 -229 100
-137 40 -160 55 -139 94 13 24 70 36 113 23 19 -5 40 -22 52 -40 l20 -32 108
-1 107 0 0 33 c0 18 -11 56 -25 84 -43 85 -131 131 -265 138 -41 2 -93 0 -115
-5z"/>
<path d="M13240 1159 c-202 -40 -336 -250 -300 -475 15 -91 48 -162 107 -225
162 -175 474 -150 589 47 23 40 32 64 48 137 l6 27 -118 0 -119 0 -18 -45
c-21 -56 -53 -78 -111 -78 -55 0 -90 23 -123 84 -21 36 -25 57 -25 125 0 67 4
90 25 129 56 110 195 112 239 4 l12 -29 114 0 c129 0 128 -1 99 79 -58 165
-236 257 -425 220z"/>
<path d="M19560 1160 c-152 -32 -244 -142 -225 -269 16 -107 63 -147 240 -203
72 -22 142 -47 157 -54 55 -28 44 -85 -21 -105 -74 -22 -153 12 -166 71 l-7
30 -120 0 -121 0 6 -45 c18 -130 114 -211 281 -237 178 -28 343 37 397 157 25
55 25 154 0 203 -38 74 -90 104 -272 157 -141 42 -158 52 -141 89 24 52 131
45 167 -11 l20 -32 108 -1 107 0 0 33 c-1 79 -68 164 -158 197 -63 24 -186 33
-252 20z"/>
<path d="M4877 1143 c-4 -3 -7 -181 -7 -395 l0 -388 325 0 325 0 0 100 0 100
-205 0 -205 0 0 60 0 60 180 0 180 0 0 90 0 90 -180 0 -180 0 0 50 0 50 200 0
200 0 0 95 0 95 -313 0 c-173 0 -317 -3 -320 -7z"/>
<path d="M5753 1134 c-10 -26 4 -556 16 -596 43 -141 217 -220 421 -190 125
18 201 68 244 162 20 42 21 66 24 343 l3 297 -120 0 -121 0 0 -274 0 -275 -24
-28 c-22 -25 -31 -28 -85 -28 -53 0 -64 4 -88 28 l-28 27 -3 275 -3 275 -115
0 c-95 0 -116 -3 -121 -16z"/>
<path d="M7241 763 c-78 -214 -141 -391 -141 -395 0 -5 53 -8 118 -8 l118 0
18 55 17 55 129 0 129 0 17 -55 18 -55 122 0 122 0 -95 257 c-51 142 -117 320
-145 396 l-50 137 -118 0 -117 0 -142 -387z m298 12 c17 -61 31 -116 31 -123
0 -8 -22 -12 -70 -12 -49 0 -70 4 -70 13 0 10 52 189 65 226 8 21 10 16 44
-104z"/>
<path d="M8060 756 l0 -396 115 0 114 0 3 122 3 123 135 5 c114 4 141 9 177
28 102 54 155 192 119 314 -23 80 -64 131 -133 164 l-58 29 -237 3 -238 4 0
-396z m427 170 c30 -36 30 -80 -2 -111 -22 -23 -32 -25 -110 -25 l-85 0 0 78
c0 43 3 82 8 86 4 5 43 6 86 4 71 -4 82 -8 103 -32z"/>
<path d="M8940 756 l0 -396 120 0 120 0 0 125 0 125 119 0 c136 0 188 14 239
63 49 47 74 103 80 177 9 125 -39 213 -143 265 l-60 30 -237 3 -238 4 0 -396z
m392 194 c43 -12 58 -34 58 -84 0 -61 -25 -76 -125 -76 l-85 0 0 85 0 85 58 0
c31 0 74 -5 94 -10z"/>
<path d="M10290 755 l0 -395 233 0 c254 0 309 8 375 54 73 50 108 157 83 248
-15 51 -33 75 -84 110 l-38 26 30 21 c64 46 78 164 28 240 -50 75 -121 91
-413 91 l-214 0 0 -395z m410 195 c24 -24 26 -57 3 -82 -13 -15 -31 -18 -100
-18 l-83 0 0 60 0 60 80 0 c67 0 83 -3 100 -20z m29 -274 c27 -25 28 -79 1
-106 -17 -17 -33 -20 -115 -20 l-95 0 0 76 0 76 94 -4 c75 -2 98 -7 115 -22z"/>
<path d="M11220 755 l0 -395 320 0 320 0 0 100 0 100 -205 0 -206 0 3 58 3 57
183 3 182 2 0 90 0 90 -185 0 -185 0 0 50 0 50 200 0 200 0 0 95 0 95 -315 0
-315 0 0 -395z"/>
<path d="M12286 1142 c-6 -10 -286 -771 -286 -778 0 -2 54 -4 119 -4 l120 0
17 55 18 56 130 -3 129 -3 17 -50 17 -50 121 -3 c67 -1 122 -1 122 0 0 2 -65
179 -143 393 l-144 390 -116 3 c-63 1 -118 -1 -121 -6z m153 -360 c16 -55 32
-109 36 -121 6 -20 3 -21 -69 -21 -42 0 -76 3 -76 6 0 4 14 52 31 108 17 56
33 109 36 119 7 27 11 20 42 -91z"/>
<path d="M13890 755 l0 -395 120 0 120 0 0 155 0 155 110 0 110 0 0 -155 0
-155 120 0 120 0 0 395 0 395 -120 0 -120 0 0 -135 0 -135 -110 0 -110 0 0
135 0 135 -120 0 -120 0 0 -395z"/>
<path d="M15237 1143 c-4 -3 -7 -48 -7 -100 l0 -93 110 0 110 0 0 -295 0 -295
120 0 120 0 2 293 3 292 108 3 107 3 0 99 0 100 -333 0 c-184 0 -337 -3 -340
-7z"/>
<path d="M16070 755 l0 -395 325 0 325 0 0 100 0 100 -205 0 -205 0 0 60 0 60
180 0 180 0 0 90 0 90 -180 0 -180 0 0 50 0 50 200 0 200 0 0 95 0 95 -320 0
-320 0 0 -395z"/>
<path d="M16960 755 l0 -395 110 0 110 0 2 221 3 221 121 -218 122 -219 116
-3 116 -3 0 396 0 395 -116 0 -115 0 3 -215 c2 -118 -1 -210 -5 -206 -5 5 -59
100 -121 212 l-112 204 -117 3 -117 3 0 -396z"/>
<path d="M17910 755 l0 -395 116 0 116 0 -7 223 c-5 148 -4 219 3 212 6 -5 63
-106 127 -223 l117 -212 114 0 114 0 0 395 0 395 -117 0 -116 0 7 -215 c4
-118 5 -215 2 -215 -2 0 -58 97 -123 215 l-118 214 -117 1 -118 0 0 -395z"/>
<path d="M18860 755 l0 -395 120 0 120 0 0 395 0 395 -120 0 -120 0 0 -395z"/>
</g>
</svg>
