<?xml version="1.0" standalone="no"?>
<!DOCTYPE svg PUBLIC "-//W3C//DTD SVG 20010904//EN"
 "http://www.w3.org/TR/2001/REC-SVG-20010904/DTD/svg10.dtd">
<svg version="1.0" xmlns="http://www.w3.org/2000/svg"
 width="500.000000pt" height="500.000000pt" viewBox="0 0 500.000000 500.000000"
 preserveAspectRatio="xMidYMid meet">

<g transform="translate(0.000000,500.000000) scale(0.100000,-0.100000)"
fill="#000000" stroke="none">
<path d="M2718 4986 c-95 -34 -140 -91 -146 -183 -11 -161 76 -262 224 -263
130 0 220 76 239 202 26 170 -149 304 -317 244z"/>
<path d="M2802 3729 c-59 -30 -93 -82 -99 -156 -4 -50 12 -124 120 -553 69
-272 137 -558 152 -635 15 -77 29 -150 31 -163 6 -28 9 -27 189 23 148 42 196
61 190 78 -2 6 -47 203 -100 437 -194 860 -214 918 -330 971 -53 25 -101 24
-153 -2z"/>
<path d="M1619 3317 c-132 -37 -279 -177 -364 -347 -42 -84 -90 -234 -105
-332 -16 -99 -8 -359 15 -447 8 -36 38 -119 66 -185 89 -211 113 -343 113
-631 1 -234 -6 -260 -80 -332 -29 -29 -56 -63 -60 -77 -9 -39 1 -147 20 -196
15 -37 17 -62 11 -137 l-7 -92 39 -11 c35 -11 41 -19 85 -110 55 -114 134
-207 212 -248 46 -24 61 -27 151 -26 86 0 109 4 168 28 37 16 67 34 67 40 0
12 -137 346 -144 354 -2 1 -20 -7 -39 -18 l-36 -21 -27 52 c-14 29 -51 127
-81 218 -30 91 -61 178 -69 192 -19 37 -81 89 -115 96 -34 6 -35 14 -15 110
30 141 130 378 209 493 23 33 30 53 28 80 -6 69 -6 105 1 137 l7 32 -79 -6
c-63 -5 -89 -2 -125 12 -91 34 -184 159 -220 295 -20 75 -20 354 0 448 58 277
226 479 426 511 95 16 152 -7 222 -89 46 -54 84 -136 109 -233 18 -71 20 -102
15 -237 -3 -101 -10 -172 -21 -205 -9 -27 -16 -54 -16 -59 0 -12 52 3 74 22
47 43 51 66 51 277 0 222 -13 292 -76 417 -40 79 -128 171 -193 203 -62 30
-154 40 -217 22z m-66 -1507 c21 0 37 -4 35 -9 -1 -5 -34 -66 -73 -136 -52
-94 -71 -120 -73 -103 -2 13 -12 65 -23 117 -10 52 -19 109 -19 127 l0 32 58
-14 c31 -7 74 -13 95 -14z"/>
<path d="M2146 2359 c-163 -27 -277 -104 -360 -243 -134 -223 -103 -469 84
-657 129 -130 259 -175 442 -151 225 28 389 178 448 408 48 187 -1 355 -145
499 -130 130 -280 176 -469 144z"/>
<path d="M3353 2209 c-23 -4 -107 -29 -186 -54 l-143 -47 27 -167 c15 -91 35
-226 44 -300 15 -119 16 -135 2 -148 -8 -8 -63 -28 -123 -45 -134 -36 -224
-73 -343 -141 -182 -105 -269 -174 -471 -376 -108 -108 -217 -216 -244 -239
-58 -53 -59 -43 30 -239 35 -78 64 -148 64 -156 0 -50 35 -25 191 134 75 76
141 139 146 139 19 0 114 -218 170 -392 l58 -178 643 0 c353 0 642 2 642 4 0
2 -25 70 -56 152 -139 370 -230 658 -270 854 -18 87 -24 148 -24 250 0 166
-12 304 -50 570 -27 185 -59 384 -63 386 -1 0 -21 -3 -44 -7z"/>
</g>
</svg>
