<?xml version="1.0" standalone="no"?>
<!DOCTYPE svg PUBLIC "-//W3C//DTD SVG 20010904//EN"
 "http://www.w3.org/TR/2001/REC-SVG-20010904/DTD/svg10.dtd">
<svg version="1.0" xmlns="http://www.w3.org/2000/svg"
 width="500.000000pt" height="512.000000pt" viewBox="0 0 500.000000 512.000000"
 preserveAspectRatio="xMidYMid meet">

<g transform="translate(0.000000,512.000000) scale(0.100000,-0.100000)"
fill="#000000" stroke="none">
<path d="M3580 5104 c-70 -30 -97 -81 -85 -160 27 -185 305 -160 305 27 0 111
-113 179 -220 133z"/>
<path d="M3655 4291 c-11 -5 -31 -21 -45 -36 -42 -45 -35 -108 51 -445 42
-162 87 -348 100 -413 l24 -118 30 6 c50 11 199 56 208 64 8 8 -113 552 -164
737 -33 120 -54 164 -92 189 -31 20 -85 28 -112 16z"/>
<path d="M2858 4010 c-109 -33 -215 -162 -270 -330 -29 -86 -31 -107 -32 -225
0 -140 6 -171 59 -306 57 -142 68 -205 69 -384 1 -88 -3 -173 -7 -188 -4 -16
-24 -43 -43 -61 -45 -41 -55 -95 -29 -161 11 -31 16 -66 13 -108 -3 -58 -1
-62 19 -65 17 -2 31 -22 57 -77 66 -136 166 -198 283 -176 45 9 113 35 113 44
0 1 -16 41 -36 87 -20 47 -42 100 -49 118 -14 32 -15 33 -40 16 -25 -16 -25
-16 -44 28 -10 25 -36 95 -56 157 -31 89 -45 117 -72 141 -18 17 -40 30 -48
30 -19 0 -19 12 5 104 20 81 83 224 121 278 18 25 23 46 24 104 l2 72 -53 -5
c-45 -5 -60 -2 -97 20 -117 69 -167 267 -122 482 43 201 190 350 327 332 53
-7 108 -60 144 -141 25 -54 29 -75 32 -183 3 -88 0 -135 -11 -172 -17 -60 -7
-67 40 -27 28 24 28 26 31 150 4 142 -6 207 -47 292 -61 127 -172 188 -283
154z m-66 -983 l56 -12 -46 -85 -46 -85 -18 85 c-20 97 -21 110 -10 109 4 0
33 -6 64 -12z"/>
<path d="M1200 3459 c-60 -24 -60 -22 -60 -396 l0 -343 -335 0 c-364 0 -379
-2 -403 -55 -16 -34 -16 -176 0 -210 24 -53 39 -55 403 -55 l335 0 0 -340 c0
-376 0 -378 62 -399 47 -17 164 -14 199 5 56 28 59 50 59 408 l0 325 346 3
346 3 24 28 c22 26 24 37 24 127 0 90 -2 101 -24 127 l-24 28 -346 3 -346 3 0
325 c0 358 -3 380 -59 408 -34 18 -160 21 -201 5z"/>
<path d="M3179 3377 c-130 -37 -219 -137 -249 -279 -13 -67 -1 -146 32 -212
29 -57 105 -134 163 -164 44 -24 61 -27 150 -27 89 0 106 3 156 28 69 33 132
99 167 175 23 49 27 70 27 147 0 74 -5 98 -24 138 -35 70 -104 142 -168 173
-65 32 -180 42 -254 21z"/>
<path d="M3995 3283 c-11 -3 -62 -18 -113 -35 -75 -24 -92 -32 -88 -46 6 -20
42 -254 50 -328 4 -36 2 -54 -6 -62 -7 -5 -49 -20 -93 -32 -185 -50 -333 -148
-552 -365 l-162 -161 26 -60 c14 -32 36 -86 50 -119 14 -33 27 -62 29 -64 2
-2 51 42 108 99 l105 102 34 -68 c104 -207 190 -604 187 -863 -2 -126 -3 -119
18 -130 16 -9 317 -51 363 -51 18 0 19 8 18 133 0 72 -4 159 -8 192 -5 33 -8
61 -7 62 1 1 23 3 50 5 l49 3 66 -148 c63 -141 67 -148 91 -142 44 11 330 126
335 135 3 5 -26 83 -66 172 -138 315 -258 637 -326 878 -31 112 -35 144 -43
310 -12 251 -60 591 -84 589 -6 -1 -20 -4 -31 -6z"/>
<path d="M4567 1284 c-3 -4 -84 -36 -179 -73 l-173 -67 -3 -39 c-2 -22 -19
-184 -38 -360 -19 -176 -38 -372 -41 -435 -5 -103 -4 -119 15 -155 39 -77 97
-109 187 -103 81 5 127 35 159 103 22 45 29 98 71 550 38 406 45 506 36 537
-12 38 -23 52 -34 42z"/>
<path d="M3580 1073 c0 -32 -37 -81 -308 -402 -289 -343 -328 -394 -338 -447
-21 -113 82 -225 207 -224 76 1 106 26 305 261 263 309 473 565 497 606 12 22
22 60 25 102 l4 68 -33 6 c-19 4 -90 13 -159 22 -69 8 -142 18 -162 21 -32 5
-38 3 -38 -13z"/>
</g>
</svg>
