<?xml version="1.0" standalone="no"?>
<!DOCTYPE svg PUBLIC "-//W3C//DTD SVG 20010904//EN"
 "http://www.w3.org/TR/2001/REC-SVG-20010904/DTD/svg10.dtd">
<svg version="1.0" xmlns="http://www.w3.org/2000/svg"
 width="512.000000pt" height="512.000000pt" viewBox="0 0 512.000000 512.000000"
 preserveAspectRatio="xMidYMid meet">

<g transform="translate(0.000000,512.000000) scale(0.100000,-0.100000)"
fill="#000000" stroke="none">
<path d="M3953 5105 c-106 -33 -203 -121 -256 -233 -30 -62 -32 -74 -31 -167
2 -170 61 -306 180 -414 82 -75 189 -125 312 -145 244 -41 304 -55 377 -89 86
-41 179 -102 225 -148 28 -29 32 -38 27 -73 -8 -71 -84 -248 -167 -387 -44
-74 -80 -138 -80 -144 0 -9 153 -140 185 -157 8 -5 30 19 67 75 88 132 110
175 194 376 l14 34 36 -34 36 -34 23 29 24 30 -44 48 c-41 46 -43 50 -33 85
13 49 3 92 -31 133 -28 34 -32 35 -96 35 l-68 1 -44 49 c-97 110 -147 262
-164 500 -6 83 -15 173 -20 201 -32 172 -198 357 -378 420 -76 27 -217 32
-288 9z m308 -106 c109 -52 189 -130 242 -237 41 -84 42 -87 42 -191 0 -96 -3
-112 -28 -162 -32 -66 -99 -132 -165 -162 -63 -29 -204 -31 -277 -3 -122 46
-234 145 -290 257 -75 147 -46 353 63 451 76 69 136 89 253 85 74 -3 95 -8
160 -38z m345 -814 c13 -38 24 -73 24 -78 0 -4 -17 1 -37 12 -21 10 -68 29
-106 41 l-68 23 73 67 73 68 8 -32 c5 -17 20 -62 33 -101z"/>
<path d="M2858 4558 c-125 -191 -151 -425 -63 -570 29 -46 35 -66 35 -113 0
-31 5 -75 11 -98 19 -76 -28 -147 -97 -147 -18 0 -42 -9 -55 -20 l-24 -20 25
-20 c40 -32 223 -129 232 -124 13 8 9 56 -7 84 -25 44 -11 120 22 120 5 0 22
-33 38 -72 37 -99 172 -351 213 -399 l34 -39 27 22 c78 64 136 111 154 123 20
14 19 16 -28 92 -92 148 -145 248 -165 312 -11 35 -20 64 -20 66 0 1 24 6 54
9 120 15 261 119 361 265 65 96 64 107 -18 150 -67 36 -70 40 -52 83 5 12 -3
23 -32 41 -64 41 -413 236 -434 242 -14 5 -21 0 -29 -19 -11 -30 -18 -28 -100
21 -30 18 -58 33 -61 33 -4 0 -13 -10 -21 -22z m82 -88 c21 -11 41 -24 44 -29
3 -5 -18 -69 -48 -142 -29 -74 -59 -158 -66 -186 -8 -29 -17 -53 -22 -53 -4 0
-15 15 -25 33 -24 44 -24 164 1 237 25 73 63 160 71 160 3 0 23 -9 45 -20z
m580 -330 c21 -11 42 -24 45 -30 18 -30 -140 -207 -222 -249 -38 -19 -113 -29
-113 -16 0 3 36 46 80 96 44 50 99 120 122 155 23 35 44 64 46 64 1 0 20 -9
42 -20z"/>
<path d="M3885 3807 c-113 -38 -199 -110 -243 -205 -36 -77 -36 -197 -2 -287
82 -211 355 -290 550 -157 184 125 201 408 34 562 -91 83 -236 121 -339 87z"/>
<path d="M1055 3665 c-138 -30 -265 -97 -366 -192 -171 -162 -251 -343 -251
-573 0 -192 60 -363 179 -504 32 -38 62 -74 66 -80 6 -7 -61 -120 -179 -306
-260 -409 -254 -399 -254 -443 0 -82 56 -133 137 -124 24 2 53 13 64 23 11 10
118 172 236 359 119 187 218 342 220 344 2 3 34 -5 71 -17 164 -53 332 -50
500 7 234 81 414 270 492 516 34 108 39 283 11 400 -86 359 -400 607 -766 604
-55 0 -127 -7 -160 -14z m300 -220 c199 -51 359 -211 410 -410 32 -126 14
-278 -47 -399 -42 -84 -163 -202 -248 -243 -320 -154 -696 12 -796 352 -24 80
-24 220 0 299 59 199 218 356 409 402 73 17 201 17 272 -1z"/>
<path d="M3371 3191 c-45 -39 -89 -74 -97 -79 -10 -6 -14 -16 -10 -28 3 -11
67 -82 141 -157 l135 -137 0 -825 0 -825 200 0 200 0 0 255 0 255 35 0 35 0 0
-255 0 -255 200 0 200 0 0 824 0 825 123 123 c68 68 132 136 142 151 17 27 17
28 -6 53 -29 31 -150 131 -164 136 -6 2 -46 -37 -90 -86 -43 -48 -101 -106
-128 -127 l-49 -39 -263 0 -263 0 -56 45 c-30 25 -61 54 -68 64 -7 10 -41 48
-74 85 l-62 67 -81 -70z"/>
<path d="M3540 617 c0 -460 0 -463 23 -507 74 -147 291 -144 358 5 17 37 19
75 19 503 l0 462 -200 0 -200 0 0 -463z"/>
<path d="M4010 626 c0 -477 1 -492 47 -554 48 -65 157 -92 236 -58 39 17 92
71 106 109 7 19 11 190 11 493 l0 464 -200 0 -200 0 0 -454z"/>
</g>
</svg>
