<?xml version="1.0" standalone="no"?>
<!DOCTYPE svg PUBLIC "-//W3C//DTD SVG 20010904//EN"
 "http://www.w3.org/TR/2001/REC-SVG-20010904/DTD/svg10.dtd">
<svg version="1.0" xmlns="http://www.w3.org/2000/svg"
 width="512.000000pt" height="512.000000pt" viewBox="0 0 512.000000 512.000000"
 preserveAspectRatio="xMidYMid meet">

<g transform="translate(0.000000,512.000000) scale(0.100000,-0.100000)"
fill="#000000" stroke="none">
<path d="M2565 5106 c-42 -18 -83 -69 -91 -112 -9 -48 19 -118 59 -146 25 -18
46 -23 94 -23 59 0 65 2 99 36 118 118 -9 312 -161 245z"/>
<path d="M2618 4274 c-33 -18 -58 -62 -58 -104 0 -16 23 -114 50 -218 49 -181
132 -542 146 -630 8 -50 0 -50 149 -3 l90 28 -2 40 c-2 57 -83 412 -147 648
-48 178 -57 202 -85 227 -36 32 -97 37 -143 12z"/>
<path d="M1837 4006 c-183 -68 -319 -337 -304 -601 5 -89 12 -114 80 -300 54
-148 75 -339 54 -488 -7 -48 -15 -64 -47 -96 -51 -50 -57 -80 -35 -160 18 -65
21 -105 10 -148 -4 -18 0 -24 20 -29 20 -5 35 -24 61 -76 48 -95 107 -153 179
-173 36 -11 70 -14 93 -10 43 8 124 45 120 55 -2 3 -25 57 -52 119 -48 109
-49 111 -68 94 -19 -17 -20 -16 -38 7 -11 14 -38 81 -60 150 -49 147 -59 165
-105 187 -41 19 -41 25 -15 127 22 88 45 143 98 236 30 53 38 78 42 136 l5 70
-52 -4 c-68 -6 -104 10 -153 66 -107 121 -115 371 -20 569 146 302 412 266
461 -61 11 -74 4 -184 -17 -263 -6 -21 -4 -22 24 -12 28 10 30 15 42 91 23
149 -6 315 -73 414 -59 88 -166 131 -250 100z m-111 -966 c15 -6 47 -11 71
-12 l43 -1 -22 -36 c-13 -20 -37 -63 -55 -96 -35 -66 -36 -66 -51 46 -6 41
-14 83 -18 92 -7 20 -4 20 32 7z"/>
<path d="M2156 3374 c-94 -29 -178 -103 -220 -193 -30 -66 -30 -216 0 -282 82
-177 293 -256 467 -176 105 48 176 143 199 265 9 50 8 72 -6 129 -49 200 -248
316 -440 257z"/>
<path d="M2897 3256 c-60 -19 -111 -36 -114 -39 -2 -3 4 -70 15 -149 37 -256
37 -268 13 -268 -32 0 -181 -50 -246 -83 -70 -35 -159 -93 -230 -151 -83 -67
-315 -299 -315 -315 0 -25 93 -231 104 -231 6 0 54 45 107 100 l97 100 40 -82
c104 -215 168 -510 187 -865 l7 -123 32 -5 c17 -3 87 -12 156 -20 69 -8 143
-18 164 -21 l39 -6 -7 138 c-3 77 -9 167 -12 202 l-6 62 53 0 54 0 65 -150
c36 -82 68 -150 72 -150 11 0 341 131 350 139 4 3 -22 71 -58 151 -146 323
-276 681 -339 925 -26 105 -34 159 -39 280 -10 200 -59 596 -75 594 -3 0 -55
-15 -114 -33z"/>
<path d="M3370 1210 l-175 -70 -44 -440 c-24 -242 -41 -460 -39 -485 14 -124
148 -199 265 -150 48 20 71 41 95 88 15 31 28 131 69 538 45 444 49 505 37
542 -7 22 -17 42 -23 43 -5 2 -89 -28 -185 -66z"/>
<path d="M2560 1061 c0 -19 -78 -119 -306 -391 -169 -201 -312 -379 -320 -397
-17 -38 -18 -111 -3 -150 23 -62 109 -122 175 -123 38 0 92 18 121 40 39 30
688 814 700 845 16 43 22 146 9 151 -6 2 -93 14 -193 27 l-183 24 0 -26z"/>
</g>
</svg>
