<?xml version="1.0" standalone="no"?>
<!DOCTYPE svg PUBLIC "-//W3C//DTD SVG 20010904//EN"
 "http://www.w3.org/TR/2001/REC-SVG-20010904/DTD/svg10.dtd">
<svg version="1.0" xmlns="http://www.w3.org/2000/svg"
 width="500.000000pt" height="500.000000pt" viewBox="0 0 500.000000 500.000000"
 preserveAspectRatio="xMidYMid meet">

<g transform="translate(0.000000,500.000000) scale(0.100000,-0.100000)"
fill="#000000" stroke="none">
<path d="M2570 4991 c-99 -31 -204 -122 -256 -222 -56 -109 -42 -298 32 -440
62 -118 197 -225 333 -264 25 -8 98 -21 161 -30 199 -28 288 -58 404 -136 84
-57 136 -109 136 -135 0 -32 -56 -187 -97 -269 -20 -38 -63 -114 -96 -168 -51
-83 -58 -100 -46 -112 37 -35 175 -145 182 -145 18 0 142 208 197 331 32 72
62 134 65 137 3 3 19 -7 35 -23 l30 -29 26 25 25 25 -42 47 c-39 45 -41 49
-34 96 7 55 -9 104 -45 136 -17 16 -36 20 -84 19 l-61 0 -48 55 c-97 112 -140
245 -157 483 -6 84 -16 176 -22 203 -37 173 -202 351 -377 405 -65 21 -209 26
-261 11z m294 -110 c188 -92 305 -296 277 -479 -26 -164 -162 -282 -327 -282
-158 0 -342 121 -418 275 -76 155 -40 367 78 456 72 54 124 69 232 66 80 -2
99 -7 158 -36z m306 -690 c0 -17 12 -62 26 -101 14 -40 23 -74 21 -77 -3 -2
-16 1 -29 8 -12 7 -58 25 -102 39 l-78 27 43 31 c24 18 57 48 72 67 34 43 47
44 47 6z"/>
<path d="M1466 4408 c-64 -116 -81 -179 -81 -308 0 -121 1 -125 64 -240 13
-25 20 -64 24 -137 6 -93 4 -104 -16 -135 -18 -26 -33 -35 -76 -45 -30 -6 -60
-18 -68 -26 -13 -13 -4 -21 69 -65 109 -65 164 -93 172 -85 11 11 6 57 -9 83
-8 14 -14 36 -15 50 0 26 25 70 39 70 5 0 18 -28 31 -62 25 -72 147 -311 190
-373 52 -75 48 -75 154 11 53 42 94 79 92 83 -2 3 -40 67 -84 141 -74 122
-132 248 -132 284 0 9 18 17 51 21 88 12 178 66 264 157 75 80 135 168 135
199 0 10 -27 31 -70 53 -69 37 -70 37 -54 61 9 13 13 28 10 34 -4 5 -37 26
-74 47 -37 20 -137 77 -222 125 -86 49 -161 89 -168 89 -6 0 -16 -9 -22 -20
-15 -27 -26 -25 -90 15 -30 19 -60 35 -67 35 -6 0 -28 -28 -47 -62z m114 -48
c22 -11 40 -23 40 -26 0 -3 -16 -44 -37 -92 -20 -48 -50 -132 -68 -186 l-32
-100 -19 29 c-26 40 -31 155 -10 227 22 76 64 168 76 168 6 0 29 -9 50 -20z
m558 -315 c58 -31 58 -29 23 -83 -18 -28 -65 -82 -106 -121 -76 -72 -124 -96
-178 -89 -27 3 -26 4 48 88 41 47 96 115 122 153 26 37 50 67 55 67 5 0 21 -7
36 -15z"/>
<path d="M2478 3711 c-163 -54 -257 -192 -245 -361 9 -139 77 -243 196 -299
49 -23 68 -26 156 -26 88 1 107 4 156 28 67 32 142 109 172 175 17 37 21 67
22 142 0 84 -3 102 -28 151 -33 68 -118 152 -184 180 -68 30 -172 34 -245 10z"/>
<path d="M2000 3122 c-36 -31 -78 -66 -94 -78 -28 -20 -29 -22 -12 -45 9 -13
72 -81 141 -150 l125 -127 0 -806 0 -806 195 0 195 0 0 250 0 250 35 0 35 0 0
-250 0 -250 195 0 195 0 0 806 0 806 135 140 c74 77 135 146 135 153 0 14
-173 165 -188 165 -4 0 -29 -28 -57 -61 -27 -34 -81 -90 -119 -125 l-68 -64
-267 0 -266 0 -122 125 c-67 69 -123 125 -125 125 -2 0 -32 -26 -68 -58z"/>
<path d="M2160 595 c0 -500 -2 -481 62 -542 40 -39 76 -53 131 -53 85 1 165
60 187 138 6 23 10 204 10 475 l0 437 -195 0 -195 0 0 -455z"/>
<path d="M2620 601 c0 -293 4 -460 11 -478 12 -34 64 -90 101 -109 32 -17 115
-18 155 -3 40 15 82 57 104 104 17 37 19 73 19 488 l0 447 -195 0 -195 0 0
-449z"/>
</g>
</svg>
