<?xml version="1.0" standalone="no"?>
<!DOCTYPE svg PUBLIC "-//W3C//DTD SVG 20010904//EN"
 "http://www.w3.org/TR/2001/REC-SVG-20010904/DTD/svg10.dtd">
<svg version="1.0" xmlns="http://www.w3.org/2000/svg"
 width="512.000000pt" height="512.000000pt" viewBox="0 0 512.000000 512.000000"
 preserveAspectRatio="xMidYMid meet">

<g transform="translate(0.000000,512.000000) scale(0.100000,-0.100000)"
fill="#000000" stroke="none">
<path d="M1312 4187 c-11 -12 -90 -191 -175 -397 l-153 -375 -237 -3 c-227 -2
-237 -2 -237 17 0 10 -7 24 -15 31 -33 27 -39 -3 -43 -214 -5 -248 4 -396 24
-396 8 0 19 9 26 20 12 18 24 20 135 20 68 0 123 -2 123 -4 0 -2 -13 -33 -29
-68 -15 -35 -32 -74 -35 -86 -7 -22 -6 -22 24 -10 25 11 37 27 63 88 l32 75
224 3 223 2 -6 -22 c-20 -72 -20 -78 7 -78 22 0 27 7 38 50 l13 50 608 0 608
0 0 -325 0 -325 -210 0 c-142 0 -210 -3 -210 -11 0 -6 5 -19 10 -30 10 -19 32
-19 945 -19 l935 0 19 -37 c10 -21 28 -73 40 -115 11 -42 81 -276 156 -518 74
-243 135 -443 135 -446 0 -2 -497 -4 -1105 -4 l-1105 0 -10 -26 c-6 -14 -10
-27 -10 -30 0 -2 659 -4 1465 -4 806 0 1465 -4 1465 -8 0 -32 -17 -32 -1490
-32 l-1467 0 -11 -25 -12 -25 1484 0 1483 0 27 21 c38 30 59 76 53 115 -7 43
-81 230 -243 615 -262 625 -504 1209 -504 1219 0 6 42 10 106 10 98 0 107 -2
124 -22 15 -19 21 -21 32 -10 17 17 19 585 2 602 -17 17 -44 1 -44 -26 l0 -24
-227 2 -226 3 -157 379 c-105 254 -164 385 -179 397 -22 18 -68 19 -1245 19
l-1223 0 -21 -23z m328 -34 c0 -5 -194 -664 -215 -730 -3 -10 -51 -13 -195
-13 -104 0 -190 2 -190 5 0 9 277 680 294 714 l17 31 144 0 c80 0 145 -3 145
-7z m1821 -158 c27 -88 49 -163 49 -167 0 -5 -430 -8 -955 -8 -525 0 -955 4
-955 8 0 8 83 286 95 320 3 10 181 12 861 10 l856 -3 49 -160z m328 128 c47
-93 291 -682 291 -703 0 -7 -70 -9 -196 -8 l-197 3 -18 65 c-10 36 -59 198
-108 360 -50 162 -91 300 -91 307 0 10 34 13 150 13 l150 0 19 -37z m-1259
-528 l0 -185 -525 0 c-446 0 -525 2 -525 14 0 18 89 315 101 339 9 16 42 17
479 17 l470 0 0 -185z m1000 164 c7 -11 31 -87 54 -167 24 -81 46 -155 50
-164 8 -17 -21 -18 -528 -18 l-536 0 0 185 0 185 475 0 c470 0 474 0 485 -21z
m-2860 -439 l0 -40 -80 0 -80 0 0 40 0 40 80 0 80 0 0 -40z m170 0 l0 -40 -75
0 -75 0 0 40 0 40 75 0 75 0 0 -40z m130 30 c0 -24 -50 -61 -78 -58 -22 2 -28
8 -30 36 l-3 32 55 0 c32 0 56 -4 56 -10z m58 -22 c-2 -26 -8 -34 -27 -36 -21
-3 -23 -1 -18 20 4 12 7 29 7 36 0 6 9 12 21 12 17 0 20 -5 17 -32z m172 -8
l0 -40 -75 0 -75 0 0 40 0 40 75 0 75 0 0 -40z m180 0 l0 -40 -80 0 -80 0 0
40 0 40 80 0 80 0 0 -40z m188 8 l-3 -33 -67 -3 c-73 -3 -81 4 -58 49 9 15 22
19 71 19 l60 0 -3 -32z m172 -8 l0 -40 -80 0 -80 0 0 40 0 40 80 0 80 0 0 -40z
m180 6 c0 -41 -10 -46 -96 -46 l-64 0 0 40 0 40 80 0 80 0 0 -34z m178 -3 l-3
-38 -68 -3 c-78 -3 -97 6 -97 49 l0 29 86 0 85 0 -3 -37z m182 2 l0 -35 -80 0
-80 0 0 35 0 35 80 0 80 0 0 -35z m170 0 l0 -35 -75 0 -75 0 0 35 0 35 75 0
75 0 0 -35z m188 3 l-3 -33 -80 0 -80 0 -3 33 -3 32 86 0 86 0 -3 -32z m170 0
l-3 -33 -72 -3 -73 -3 0 36 0 35 76 0 75 0 -3 -32z m182 -3 l0 -35 -80 0 -80
0 0 35 0 35 80 0 80 0 0 -35z m170 0 l0 -36 -72 3 -73 3 -3 33 -3 32 75 0 76
0 0 -35z m188 3 l-3 -33 -77 -3 -78 -3 0 36 0 35 81 0 80 0 -3 -32z m182 -3
l0 -35 -80 0 -80 0 0 35 0 35 80 0 80 0 0 -35z m140 16 c23 -45 15 -52 -57
-49 l-68 3 -3 33 -3 32 60 0 c49 0 62 -4 71 -19z m218 -13 l-3 -33 -77 -3 -78
-3 0 36 0 35 81 0 80 0 -3 -32z m172 -3 l0 -35 -75 0 -75 0 0 35 0 35 75 0 75
0 0 -35z m74 13 c11 -42 7 -49 -21 -46 -23 2 -29 8 -31 36 -3 28 0 32 21 32
17 0 27 -7 31 -22z m111 -13 c0 -28 -3 -30 -33 -28 -39 1 -37 0 -46 36 -7 28
-6 28 36 25 40 -3 43 -5 43 -33z m173 3 l-3 -33 -72 -3 -73 -3 0 36 0 35 76 0
75 0 -3 -32z m172 -3 l0 -35 -75 0 -75 0 0 35 0 35 75 0 75 0 0 -35z m-3920
-90 l0 -35 -80 0 -80 0 0 35 0 35 80 0 80 0 0 -35z m170 0 l0 -35 -75 0 -75 0
0 35 0 35 75 0 75 0 0 -35z m77 0 c-8 -27 -16 -35 -34 -35 -20 0 -23 5 -23 35
0 33 2 35 34 35 l34 0 -11 -35z m113 0 c0 -35 0 -35 -45 -35 -48 0 -52 5 -33
45 9 19 19 25 45 25 31 0 33 -2 33 -35z m170 0 l0 -35 -75 0 -75 0 0 35 0 35
75 0 75 0 0 -35z m180 16 c0 -46 -9 -51 -86 -51 l-74 0 0 35 0 35 80 0 c72 0
80 -2 80 -19z m190 -16 l0 -35 -83 0 -83 0 4 35 4 35 79 0 79 0 0 -35z m170 0
l0 -35 -80 0 -80 0 0 35 0 35 80 0 80 0 0 -35z m180 0 l0 -35 -80 0 -80 0 0
35 0 35 80 0 80 0 0 -35z m180 0 l0 -35 -85 0 c-77 0 -85 2 -85 19 0 46 8 51
91 51 l79 0 0 -35z m180 0 l0 -35 -80 0 -80 0 0 35 0 35 80 0 80 0 0 -35z
m170 0 l0 -35 -75 0 -75 0 0 35 0 35 75 0 75 0 0 -35z m190 0 l0 -35 -85 0
-85 0 0 35 0 35 85 0 85 0 0 -35z m170 0 l0 -35 -75 0 -75 0 0 35 0 35 75 0
75 0 0 -35z m180 0 l0 -35 -80 0 -80 0 0 35 0 35 80 0 80 0 0 -35z m170 0 l0
-35 -75 0 -75 0 0 35 0 35 75 0 75 0 0 -35z m190 0 l0 -35 -80 0 -80 0 0 35 0
35 80 0 80 0 0 -35z m180 0 l0 -35 -80 0 -80 0 0 35 0 35 80 0 80 0 0 -35z
m170 0 l0 -35 -80 0 -80 0 0 35 0 35 80 0 80 0 0 -35z m190 0 l0 -35 -74 0
c-68 0 -74 2 -80 23 -12 46 -10 47 74 47 l80 0 0 -35z m170 0 l0 -35 -75 0
-75 0 0 35 0 35 75 0 75 0 0 -35z m117 -2 l13 -33 -55 0 -55 0 0 36 0 35 42
-3 c36 -3 43 -7 55 -35z m73 2 c0 -19 -3 -35 -7 -35 -16 0 -32 17 -42 43 -10
26 -9 27 19 27 28 0 30 -3 30 -35z m170 0 l0 -35 -75 0 -75 0 0 35 0 35 75 0
75 0 0 -35z m170 0 l0 -35 -75 0 -75 0 0 35 0 35 75 0 75 0 0 -35z m-3920 -95
l0 -40 -80 0 -80 0 0 40 0 40 80 0 80 0 0 -40z m170 0 l0 -40 -75 0 -75 0 0
33 c0 19 3 37 7 40 3 4 37 7 75 7 l68 0 0 -40z m188 -2 l3 -38 -65 0 c-36 0
-66 4 -66 9 0 4 5 22 11 40 11 31 13 32 63 29 l51 -3 3 -37z m172 2 l0 -40
-75 0 -75 0 0 40 0 40 75 0 75 0 0 -40z m156 20 c-3 -11 -9 -29 -12 -40 -5
-17 -14 -20 -65 -20 l-59 0 0 40 0 40 71 0 c66 0 70 -1 65 -20z m212 -22 l3
-38 -85 0 -86 0 0 33 c0 19 3 37 7 41 4 4 41 5 83 4 l75 -3 3 -37z m172 2 l0
-40 -80 0 -80 0 0 40 0 40 80 0 80 0 0 -40z m180 0 l0 -40 -80 0 -80 0 0 40 0
40 80 0 80 0 0 -40z m178 -2 l3 -38 -85 0 -86 0 0 33 c0 19 3 37 7 41 4 4 41
5 83 4 l75 -3 3 -37z m182 2 l0 -40 -80 0 -80 0 0 40 0 40 80 0 80 0 0 -40z
m170 0 l0 -40 -75 0 -75 0 0 40 0 40 75 0 75 0 0 -40z m188 -2 l3 -38 -85 0
-86 0 0 33 c0 19 3 37 7 41 4 4 41 5 83 4 l75 -3 3 -37z m170 0 l3 -38 -75 0
-76 0 0 40 0 41 73 -3 72 -3 3 -37z m182 2 l0 -40 -80 0 -80 0 0 40 0 40 80 0
80 0 0 -40z m170 0 l0 -40 -75 0 -75 0 0 33 c0 19 3 37 7 40 3 4 37 7 75 7
l68 0 0 -40z m188 -2 l3 -38 -80 0 -81 0 0 40 0 41 78 -3 77 -3 3 -37z m182 2
l0 -40 -80 0 -80 0 0 40 0 40 80 0 80 0 0 -40z m170 0 l0 -40 -80 0 -80 0 0
33 c0 19 3 37 7 40 3 4 39 7 80 7 l73 0 0 -40z m188 -2 l3 -38 -59 0 c-55 0
-60 2 -66 24 -3 13 -9 32 -12 41 -6 14 2 16 62 13 l69 -3 3 -37z m172 2 l0
-40 -75 0 -75 0 0 40 0 40 75 0 75 0 0 -40z m153 5 c9 -20 17 -38 17 -40 0 -3
-34 -5 -75 -5 l-75 0 0 33 c0 19 3 37 7 40 3 4 29 7 58 7 49 0 52 -2 68 -35z
m205 -7 l3 -38 -75 0 -76 0 0 40 0 41 73 -3 72 -3 3 -37z m172 2 l0 -40 -75 0
-75 0 0 40 0 40 75 0 75 0 0 -40z m-3920 -95 l0 -35 -80 0 -80 0 0 35 0 35 80
0 80 0 0 -35z m170 23 c0 -7 -3 -23 -6 -35 -6 -21 -12 -23 -75 -23 l-69 0 0
35 0 35 75 0 c53 0 75 -4 75 -12z m188 -20 l-3 -33 -77 -3 c-76 -3 -78 -2 -78
21 0 37 19 47 93 47 l68 0 -3 -32z m172 -3 l0 -35 -75 0 -75 0 0 35 0 35 75 0
75 0 0 -35z m124 8 c-10 -42 -12 -43 -60 -43 -44 0 -44 0 -44 35 l0 35 55 0
c55 0 55 0 49 -27z m56 -8 c0 -24 -5 -35 -15 -35 -16 0 -18 12 -9 48 10 34 24
26 24 -13z m188 3 l-3 -33 -80 0 c-69 0 -80 2 -83 18 -8 41 4 47 88 47 l81 0
-3 -32z m172 -3 l0 -35 -80 0 -80 0 0 35 0 35 80 0 80 0 0 -35z m180 0 l0 -35
-80 0 -80 0 0 35 0 35 80 0 80 0 0 -35z m175 0 l0 -30 -80 0 -80 0 -3 33 -3
33 83 -3 83 -3 0 -30z m185 0 l0 -35 -80 0 -80 0 0 35 0 35 80 0 80 0 0 -35z
m170 0 l0 -35 -75 0 -75 0 0 35 0 35 75 0 75 0 0 -35z m185 0 l0 -30 -80 0
-80 0 -3 33 -3 33 83 -3 83 -3 0 -30z m175 0 l0 -35 -75 0 -75 0 0 35 0 35 75
0 75 0 0 -35z m180 0 l0 -35 -80 0 -80 0 0 35 0 35 80 0 80 0 0 -35z m170 0
l0 -36 -72 3 -73 3 -3 33 -3 32 75 0 76 0 0 -35z m190 0 l0 -35 -80 0 -80 0 0
35 0 35 80 0 80 0 0 -35z m180 0 l0 -35 -80 0 -80 0 0 35 0 35 80 0 80 0 0
-35z m170 0 l0 -36 -77 3 -78 3 -3 33 -3 32 80 0 81 0 0 -35z m60 16 c0 -3 3
-16 6 -28 5 -19 2 -23 -15 -23 -17 0 -21 6 -21 35 0 26 3 33 15 29 8 -4 15 -9
15 -13z m130 -16 c0 -34 -1 -35 -39 -35 -40 0 -54 10 -65 48 -7 21 -5 22 48
22 l56 0 0 -35z m170 0 l0 -35 -75 0 -75 0 0 35 0 35 75 0 75 0 0 -35z m185 0
l0 -30 -80 0 -80 0 -3 33 -3 33 83 -3 83 -3 0 -30z m175 0 l0 -35 -54 0 c-59
0 -86 16 -86 51 0 17 8 19 70 19 l70 0 0 -35z m170 0 l0 -35 -75 0 -75 0 0 35
0 35 75 0 75 0 0 -35z m-3920 -90 l0 -35 -80 0 -80 0 0 35 0 35 80 0 80 0 0
-35z m140 25 c0 -5 -5 -21 -12 -35 -10 -22 -17 -25 -60 -25 l-48 0 0 35 0 35
60 0 c33 0 60 -4 60 -10z m220 -25 l0 -35 -85 0 -85 0 0 35 0 35 85 0 85 0 0
-35z m170 0 l0 -35 -75 0 -75 0 0 35 0 35 75 0 75 0 0 -35z m100 23 c-1 -43
-13 -58 -46 -58 -32 0 -34 2 -34 35 0 34 1 35 40 35 25 0 40 -5 40 -12z m80
-23 c0 -32 -2 -35 -30 -35 -25 0 -30 4 -30 23 0 28 17 47 42 47 14 0 18 -8 18
-35z m190 0 l0 -35 -85 0 -85 0 0 35 0 35 85 0 85 0 0 -35z m170 0 l0 -35 -80
0 -80 0 0 35 0 35 80 0 80 0 0 -35z m180 0 l0 -35 -80 0 -80 0 0 35 0 35 80 0
80 0 0 -35z m180 0 l0 -35 -85 0 -85 0 0 35 0 35 85 0 85 0 0 -35z m180 0 l0
-35 -80 0 -80 0 0 35 0 35 80 0 80 0 0 -35z m170 0 l0 -35 -75 0 -75 0 0 35 0
35 75 0 75 0 0 -35z m190 0 l0 -35 -85 0 -85 0 0 35 0 35 85 0 85 0 0 -35z
m170 0 l0 -35 -75 0 -75 0 0 35 0 35 75 0 75 0 0 -35z m180 0 l0 -35 -80 0
-80 0 0 35 0 35 80 0 80 0 0 -35z m170 0 l0 -35 -75 0 -75 0 0 35 0 35 75 0
75 0 0 -35z m190 0 l0 -35 -80 0 -80 0 0 35 0 35 80 0 80 0 0 -35z m180 0 l0
-35 -80 0 -80 0 0 35 0 35 80 0 80 0 0 -35z m170 0 l0 -35 -80 0 -80 0 0 35 0
35 80 0 80 0 0 -35z m87 0 l11 -35 -34 0 c-32 0 -34 2 -34 35 0 30 3 35 23 35
18 0 26 -8 34 -35z m103 0 c0 -33 -2 -35 -35 -35 -28 0 -35 4 -35 19 0 11 -3
26 -6 35 -5 13 2 16 35 16 40 0 41 -1 41 -35z m170 0 l0 -35 -75 0 -75 0 0 35
0 35 75 0 75 0 0 -35z m190 0 l0 -35 -85 0 -85 0 0 35 0 35 85 0 85 0 0 -35z
m170 0 c0 -35 0 -35 -43 -35 -41 0 -44 2 -54 35 l-11 35 54 0 54 0 0 -35z
m170 0 l0 -35 -75 0 -75 0 0 35 0 35 75 0 75 0 0 -35z m-295 -5 c15 -29 15
-30 -5 -30 -16 0 -20 7 -20 30 0 17 2 30 5 30 2 0 11 -13 20 -30z m-3455 -10
c0 -11 -4 -20 -9 -20 -5 0 -7 9 -4 20 3 11 7 20 9 20 2 0 4 -9 4 -20z m2958
-62 c6 -7 17 -40 26 -73 12 -46 132 -452 162 -547 5 -17 -33 -18 -705 -18
l-711 0 0 325 0 325 609 0 c475 0 611 -3 619 -12z m591 -188 c43 -107 142
-346 221 -530 303 -713 440 -1050 440 -1085 0 -13 -40 -15 -330 -15 -303 0
-330 1 -330 17 0 33 -241 843 -451 1514 -49 158 -89 290 -89 293 0 4 104 5
230 4 l230 -3 79 -195z"/>
<path d="M978 2475 c-456 -87 -742 -494 -678 -967 25 -188 132 -454 258 -643
98 -145 267 -350 402 -488 118 -120 127 -127 165 -127 37 0 46 7 160 123 366
369 609 781 661 1119 61 401 -148 790 -504 934 -144 58 -319 76 -464 49z m306
-165 c243 -62 436 -251 496 -486 24 -94 27 -251 6 -351 -48 -225 -188 -491
-400 -756 -90 -114 -247 -277 -264 -277 -21 0 -127 111 -247 260 -243 301
-396 606 -427 853 -28 224 45 432 206 592 162 160 403 223 630 165z"/>
<path d="M1042 2030 c-118 -25 -222 -105 -270 -208 -24 -51 -27 -69 -27 -167
0 -98 3 -116 26 -165 58 -123 184 -213 314 -226 159 -16 318 76 388 224 93
197 -3 448 -198 521 -65 24 -172 34 -233 21z m198 -178 c157 -97 151 -325 -11
-406 -99 -49 -212 -29 -278 50 -92 112 -70 283 46 351 86 50 166 52 243 5z"/>
<path d="M27 1113 c-15 -43 -27 -86 -27 -96 0 -31 29 -76 60 -92 30 -16 110
-21 110 -7 0 21 -28 41 -60 44 -24 2 -36 9 -38 21 -3 13 3 17 27 17 35 0 35 0
19 35 -6 14 -20 25 -30 25 -17 0 -19 5 -13 39 4 26 2 48 -7 66 -14 26 -14 25
-41 -52z"/>
</g>
</svg>
