<?xml version="1.0" standalone="no"?>
<!DOCTYPE svg PUBLIC "-//W3C//DTD SVG 20010904//EN"
 "http://www.w3.org/TR/2001/REC-SVG-20010904/DTD/svg10.dtd">
<svg version="1.0" xmlns="http://www.w3.org/2000/svg"
 width="500.000000pt" height="500.000000pt" viewBox="0 0 500.000000 500.000000"
 preserveAspectRatio="xMidYMid meet">

<g transform="translate(0.000000,500.000000) scale(0.100000,-0.100000)"
fill="#000000" stroke="none">
<path d="M1292 4103 c-19 -7 -37 -48 -182 -402 -72 -178 -136 -334 -142 -347
l-11 -24 -228 0 -227 0 -6 25 c-4 15 -13 25 -25 25 -25 0 -31 -56 -31 -295 0
-236 6 -295 30 -295 10 0 20 9 23 20 5 19 14 20 130 20 l126 0 -44 -100 c-25
-54 -119 -281 -211 -502 -91 -222 -226 -547 -299 -723 -184 -445 -199 -485
-191 -528 4 -22 18 -46 37 -61 l31 -26 2427 0 2428 0 27 25 c28 26 46 64 46
96 0 27 -99 276 -308 774 -244 582 -432 1034 -432 1040 0 3 49 5 109 5 101 0
110 -2 116 -20 3 -11 15 -20 25 -20 16 0 19 12 25 97 9 111 2 474 -9 492 -11
17 -46 -5 -46 -29 0 -19 -8 -20 -219 -20 l-219 0 -30 73 c-17 39 -85 205 -152
367 -67 162 -131 305 -143 318 l-20 22 -1196 -1 c-658 0 -1202 -3 -1209 -6z
m303 -70 c-3 -16 -44 -154 -90 -308 -46 -154 -91 -306 -100 -337 l-16 -58
-185 0 c-118 0 -184 4 -184 10 0 9 130 330 262 648 l30 72 145 0 145 0 -7 -27z
m1786 -133 c25 -85 45 -158 42 -162 -6 -10 -1850 -10 -1856 0 -3 4 15 72 39
151 24 80 44 150 44 158 0 11 145 13 842 11 l841 -3 48 -155z m307 148 c24
-29 292 -675 292 -703 0 -13 -29 -15 -190 -15 l-189 0 -11 43 c-17 64 -61 209
-134 445 -36 117 -66 219 -66 227 0 13 23 15 144 15 103 0 146 -4 154 -12z
m-1218 -538 l0 -180 -510 0 -510 0 0 21 c0 21 84 312 96 330 3 5 206 9 465 9
l459 0 0 -180z m977 162 c6 -11 30 -84 53 -163 23 -79 44 -152 47 -161 5 -17
-24 -18 -516 -18 l-521 0 0 180 0 180 463 0 c439 0 463 -1 474 -18z m-2797
-427 l0 -35 -75 0 -75 0 0 35 0 35 75 0 75 0 0 -35z m170 0 l0 -35 -70 0 -70
0 0 35 0 35 70 0 70 0 0 -35z m115 5 c-13 -26 -21 -30 -55 -30 -38 0 -40 2
-40 30 0 30 1 30 55 30 l56 0 -16 -30z m65 0 c0 -25 -4 -30 -24 -30 -23 0 -24
2 -13 30 6 17 17 30 24 30 8 0 13 -12 13 -30z m170 -5 l0 -35 -75 0 -75 0 0
35 0 35 75 0 75 0 0 -35z m180 0 l0 -35 -80 0 -80 0 0 35 0 35 80 0 80 0 0
-35z m180 5 l0 -30 -65 0 c-67 0 -74 5 -59 44 5 12 21 16 65 16 59 0 59 0 59
-30z m170 -5 l0 -35 -80 0 -80 0 0 35 0 35 80 0 80 0 0 -35z m178 3 l-3 -33
-77 -3 -78 -3 0 36 0 35 81 0 80 0 -3 -32z m172 -3 l0 -35 -80 0 -80 0 0 35 0
35 80 0 80 0 0 -35z m180 5 l0 -30 -80 0 -80 0 0 30 0 30 80 0 80 0 0 -30z
m160 0 l0 -30 -70 0 -70 0 0 30 0 30 70 0 70 0 0 -30z m180 0 l0 -30 -75 0
-75 0 0 30 0 30 75 0 75 0 0 -30z m170 0 l0 -30 -75 0 -75 0 0 30 0 30 75 0
75 0 0 -30z m180 0 l0 -30 -80 0 -80 0 0 30 0 30 80 0 80 0 0 -30z m170 0 l0
-30 -75 0 -75 0 0 30 0 30 75 0 75 0 0 -30z m180 0 l0 -30 -80 0 -80 0 0 30 0
30 80 0 80 0 0 -30z m180 0 l0 -30 -80 0 -80 0 0 30 0 30 80 0 80 0 0 -30z
m139 0 l10 -30 -70 0 -69 0 0 30 c0 30 0 30 59 30 57 0 59 -1 70 -30z m211 0
l0 -30 -80 0 -80 0 0 30 0 30 80 0 80 0 0 -30z m170 0 l0 -30 -75 0 -75 0 0
30 0 30 75 0 75 0 0 -30z m68 5 c16 -35 16 -35 -18 -35 -27 0 -30 3 -30 30 0
38 32 41 48 5z m112 -6 c0 -29 -2 -30 -37 -27 -30 2 -38 8 -44 31 -7 26 -6 27
37 27 42 0 44 -1 44 -31z m160 1 l0 -30 -70 0 -70 0 0 30 0 30 70 0 70 0 0
-30z m170 0 l0 -30 -70 0 -70 0 0 30 0 30 70 0 70 0 0 -30z m-3830 -90 l0 -40
-75 0 -75 0 0 40 0 40 75 0 75 0 0 -40z m170 0 l0 -40 -70 0 -70 0 0 40 0 40
70 0 70 0 0 -40z m76 8 c-3 -18 -10 -36 -16 -42 -16 -16 -40 2 -40 32 0 35 6
42 38 42 22 0 24 -3 18 -32z m104 -8 l0 -40 -40 0 c-32 0 -40 4 -40 18 0 29
29 62 56 62 21 0 24 -4 24 -40z m170 0 l0 -40 -75 0 -75 0 0 33 c0 19 3 37 7
40 3 4 37 7 75 7 l68 0 0 -40z m180 23 c-1 -58 -8 -63 -86 -63 l-74 0 0 40 0
40 80 0 c70 0 80 -2 80 -17z m180 -23 l0 -40 -80 0 c-44 0 -80 4 -80 9 0 5 3
23 6 40 l7 31 73 0 74 0 0 -40z m170 0 l0 -40 -80 0 -80 0 0 40 0 40 80 0 80
0 0 -40z m178 -2 l3 -38 -80 0 -81 0 0 40 0 41 78 -3 77 -3 3 -37z m167 2 l0
-35 -77 -3 -78 -3 0 35 c0 19 6 37 13 40 6 2 41 4 77 3 l65 -2 0 -35z m180 0
l0 -35 -77 -3 -78 -3 0 41 0 41 78 -3 77 -3 0 -35z m165 0 l0 -40 -70 0 -70 0
0 40 0 40 70 0 70 0 0 -40z m180 0 l0 -40 -75 0 -75 0 0 40 0 40 75 0 75 0 0
-40z m170 0 l0 -41 -72 3 c-68 3 -73 5 -76 26 -7 46 3 52 78 52 l70 0 0 -40z
m180 0 l0 -41 -77 3 c-73 3 -78 5 -81 26 -7 46 2 52 83 52 l75 0 0 -40z m170
0 l0 -40 -75 0 -75 0 0 33 c0 19 3 37 7 40 3 4 37 7 75 7 l68 0 0 -40z m180 0
l0 -40 -80 0 -80 0 0 40 0 40 80 0 80 0 0 -40z m180 0 l0 -40 -80 0 -80 0 0
40 0 40 80 0 80 0 0 -40z m164 18 c15 -56 12 -58 -74 -58 l-80 0 0 40 0 40 74
0 c68 0 74 -2 80 -22z m184 -20 l3 -38 -75 0 c-42 0 -76 4 -76 9 0 5 -3 23 -6
40 l-7 32 79 -3 79 -3 3 -37z m167 2 l0 -35 -72 -3 -73 -3 0 41 0 41 73 -3 72
-3 0 -35z m99 24 c9 -8 16 -19 16 -24 0 -5 3 -15 6 -24 5 -13 -2 -16 -45 -16
l-51 0 0 40 c0 38 2 40 29 40 16 0 37 -7 45 -16z m84 -21 c4 -38 -20 -46 -38
-14 -17 33 -12 53 13 49 17 -2 23 -11 25 -35z m162 -3 l0 -40 -70 0 -70 0 0
40 0 40 70 0 70 0 0 -40z m170 0 l0 -40 -70 0 -70 0 0 40 0 40 70 0 70 0 0
-40z m-3830 -95 l0 -35 -75 0 -75 0 0 35 0 35 75 0 75 0 0 -35z m170 0 l0 -35
-70 0 -70 0 0 35 0 35 70 0 70 0 0 -35z m180 0 l0 -35 -60 0 c-63 0 -66 3 -50
44 8 23 15 26 60 26 l50 0 0 -35z m170 0 l0 -35 -75 0 -75 0 0 35 0 35 75 0
75 0 0 -35z m147 0 c-10 -35 -11 -35 -69 -35 l-58 0 0 35 0 35 69 0 69 0 -11
-35z m213 0 l0 -35 -80 0 -80 0 0 35 0 35 80 0 80 0 0 -35z m170 0 l0 -35 -80
0 -80 0 0 35 0 35 80 0 80 0 0 -35z m180 0 l0 -35 -80 0 -80 0 0 35 0 35 80 0
80 0 0 -35z m170 0 l0 -35 -80 0 -80 0 0 35 0 35 80 0 80 0 0 -35z m180 0 l0
-35 -80 0 -80 0 0 35 0 35 80 0 80 0 0 -35z m160 0 l0 -35 -70 0 -70 0 0 35 0
35 70 0 70 0 0 -35z m180 0 l0 -35 -75 0 -75 0 0 35 0 35 75 0 75 0 0 -35z
m170 0 l0 -35 -75 0 -75 0 0 35 0 35 75 0 75 0 0 -35z m180 0 l0 -35 -80 0
-80 0 0 35 0 35 80 0 80 0 0 -35z m170 0 l0 -35 -75 0 -75 0 0 35 0 35 75 0
75 0 0 -35z m180 0 l0 -35 -80 0 -80 0 0 35 0 35 80 0 80 0 0 -35z m180 0 l0
-35 -80 0 -80 0 0 35 0 35 80 0 80 0 0 -35z m170 0 l0 -35 -80 0 -80 0 0 35 0
35 80 0 80 0 0 -35z m180 0 l0 -35 -58 0 c-58 0 -59 0 -69 35 l-11 35 69 0 69
0 0 -35z m170 0 l0 -35 -75 0 -75 0 0 35 0 35 75 0 75 0 0 -35z m143 18 c2
-10 8 -26 12 -35 6 -16 0 -18 -64 -18 l-71 0 0 35 0 35 59 0 c47 0 60 -3 64
-17z m197 -18 l0 -35 -70 0 -70 0 0 35 0 35 70 0 70 0 0 -35z m170 0 l0 -35
-70 0 -70 0 0 35 0 35 70 0 70 0 0 -35z m-833 -27 c-3 -7 -5 -2 -5 12 0 14 2
19 5 13 2 -7 2 -19 0 -25z m-2997 -63 l0 -35 -75 0 -75 0 0 35 0 35 75 0 75 0
0 -35z m170 23 c-1 -51 -10 -58 -76 -58 l-64 0 0 35 0 35 70 0 c49 0 70 -4 70
-12z m180 -23 l0 -35 -75 0 c-73 0 -75 1 -75 25 0 33 24 44 93 45 l57 0 0 -35z
m170 0 l0 -36 -72 3 c-61 3 -73 6 -76 21 -8 40 4 47 78 47 l70 0 0 -35z m122
29 c3 -3 3 -17 -1 -32 -6 -24 -13 -27 -54 -30 l-47 -3 0 35 0 36 48 0 c27 0
51 -3 54 -6z m58 -29 c0 -24 -5 -35 -15 -35 -15 0 -20 26 -9 54 11 28 24 17
24 -19z m180 0 l0 -35 -80 0 -80 0 0 35 0 35 80 0 80 0 0 -35z m170 0 l0 -35
-80 0 -80 0 0 35 0 35 80 0 80 0 0 -35z m178 -2 l3 -33 -80 0 -81 0 0 35 0 36
78 -3 77 -3 3 -32z m167 2 l0 -30 -77 -3 -78 -3 0 36 0 36 78 -3 77 -3 0 -30z
m180 0 l0 -30 -77 -3 -78 -3 0 36 0 36 78 -3 77 -3 0 -30z m165 0 l0 -35 -70
0 -70 0 0 35 0 35 70 0 70 0 0 -35z m180 0 l0 -35 -75 0 -75 0 0 35 0 35 75 0
75 0 0 -35z m170 0 l0 -36 -72 3 c-61 3 -73 6 -76 21 -8 40 4 47 78 47 l70 0
0 -35z m180 0 l0 -36 -77 3 c-66 3 -78 6 -81 21 -8 40 4 47 83 47 l75 0 0 -35z
m170 0 l0 -36 -72 3 c-61 3 -73 6 -76 21 -8 40 4 47 78 47 l70 0 0 -35z m180
0 l0 -35 -80 0 -80 0 0 35 0 35 80 0 80 0 0 -35z m180 0 l0 -35 -80 0 -80 0 0
35 0 35 80 0 80 0 0 -35z m170 0 l0 -35 -80 0 -80 0 0 35 0 35 80 0 80 0 0
-35z m178 -2 c3 -32 2 -33 -35 -33 -45 0 -63 14 -63 48 0 21 3 23 48 20 45 -3
47 -4 50 -35z m167 2 l0 -30 -72 -3 -73 -3 0 36 0 36 73 -3 72 -3 0 -30z m180
0 l0 -30 -77 -3 -78 -3 0 36 0 36 78 -3 77 -3 0 -30z m165 0 l0 -35 -49 0
c-53 0 -81 17 -81 51 0 17 7 19 65 19 l65 0 0 -35z m170 0 l0 -35 -70 0 -70 0
0 35 0 35 70 0 70 0 0 -35z m-806 3 c9 -35 8 -38 -14 -38 -16 0 -20 7 -20 30
0 36 25 41 34 8z m-3024 -93 l0 -35 -75 0 -75 0 0 35 0 35 75 0 75 0 0 -35z
m140 26 c0 -5 -4 -21 -10 -35 -8 -23 -15 -26 -55 -26 -45 0 -45 0 -45 35 l0
35 55 0 c30 0 55 -4 55 -9z m210 -26 l0 -35 -80 0 -80 0 0 35 0 35 80 0 80 0
0 -35z m170 0 l0 -35 -75 0 -75 0 0 35 0 35 75 0 75 0 0 -35z m100 23 c-1 -43
-13 -58 -46 -58 -32 0 -34 2 -34 35 0 34 1 35 40 35 25 0 40 -5 40 -12z m80
-23 c0 -32 -2 -35 -30 -35 -25 0 -30 4 -30 23 0 28 17 47 42 47 14 0 18 -8 18
-35z m180 0 l0 -35 -80 0 -80 0 0 35 0 35 80 0 80 0 0 -35z m170 0 l0 -35 -80
0 -80 0 0 35 0 35 80 0 80 0 0 -35z m180 0 l0 -35 -80 0 -80 0 0 35 0 35 80 0
80 0 0 -35z m170 0 l0 -35 -80 0 -80 0 0 35 0 35 80 0 80 0 0 -35z m180 0 l0
-35 -80 0 -80 0 0 35 0 35 80 0 80 0 0 -35z m160 0 l0 -35 -70 0 -70 0 0 35 0
35 70 0 70 0 0 -35z m180 0 l0 -35 -75 0 -75 0 0 35 0 35 75 0 75 0 0 -35z
m170 0 l0 -35 -75 0 -75 0 0 35 0 35 75 0 75 0 0 -35z m180 0 l0 -35 -80 0
-80 0 0 35 0 35 80 0 80 0 0 -35z m170 0 l0 -35 -75 0 -75 0 0 35 0 35 75 0
75 0 0 -35z m180 0 l0 -35 -80 0 -80 0 0 35 0 35 80 0 80 0 0 -35z m180 0 l0
-35 -80 0 -80 0 0 35 0 35 80 0 80 0 0 -35z m170 0 l0 -35 -80 0 -80 0 0 35 0
35 80 0 80 0 0 -35z m79 4 c6 -18 11 -34 11 -35 0 -2 -16 -4 -35 -4 -33 0 -35
2 -35 35 0 30 3 35 24 35 18 0 27 -8 35 -31z m101 -4 c0 -33 -2 -35 -35 -35
-28 0 -35 4 -35 19 0 11 -3 26 -6 35 -5 13 2 16 35 16 40 0 41 -1 41 -35z
m170 0 l0 -35 -75 0 -75 0 0 35 0 35 75 0 75 0 0 -35z m180 0 l0 -35 -80 0
-80 0 0 35 0 35 80 0 80 0 0 -35z m160 0 c0 -34 -1 -35 -38 -35 -35 0 -40 3
-49 35 l-11 35 49 0 49 0 0 -35z m170 0 l0 -35 -70 0 -70 0 0 35 0 35 70 0 70
0 0 -35z m-285 -5 c15 -29 15 -30 -5 -30 -16 0 -20 7 -20 30 0 17 2 30 5 30 2
0 11 -13 20 -30z m-3375 -10 c0 -11 -4 -20 -9 -20 -5 0 -7 9 -4 20 3 11 7 20
9 20 2 0 4 -9 4 -20z m410 -49 c0 -5 -88 -307 -196 -672 -108 -365 -224 -762
-259 -881 -35 -120 -66 -222 -70 -228 -4 -6 -115 -10 -322 -10 l-316 0 6 35
c3 19 44 126 90 237 175 422 615 1474 628 1501 l12 27 214 0 c117 0 213 -4
213 -9z m1240 -316 l0 -325 -686 0 -686 0 6 23 c7 29 175 598 181 615 3 9 132
12 595 12 l590 0 0 -325z m1228 317 c7 -5 52 -141 101 -303 48 -162 91 -304
95 -316 l7 -23 -695 0 -696 0 0 325 0 325 588 0 c323 0 593 -4 600 -8z m599
-220 c50 -125 181 -438 291 -697 234 -552 331 -794 339 -841 l6 -34 -319 2
-318 3 -29 100 c-62 221 -247 834 -373 1244 -74 238 -134 438 -134 442 0 5
100 9 223 9 l222 0 92 -228z m-374 -504 c9 -18 32 -89 52 -158 20 -69 88 -294
151 -500 63 -206 117 -383 120 -392 5 -17 -82 -18 -1740 -18 -960 0 -1746 3
-1746 8 0 19 59 222 173 597 69 226 128 426 132 445 4 19 9 38 12 43 2 4 640
7 1417 7 l1414 0 15 -32z m1007 -1138 c-11 -20 -21 -20 -2435 -20 -1334 0
-2425 2 -2425 4 0 2 -3 11 -6 20 -6 15 213 16 2435 16 2439 0 2442 0 2431 -20z"/>
</g>
</svg>
