<svg xmlns="http://www.w3.org/2000/svg" width="42.175" height="43.33" viewBox="0 0 42.175 43.33">
  <g id="icon_about" transform="translate(-131.973 -1322)">
    <path id="Path_24697" data-name="Path 24697" d="M115.032,185.286a.677.677,0,0,1-.5-.218l-1.56-1.69a.678.678,0,0,1,.038-.958l1.308-1.208a9.665,9.665,0,0,0,2.9-7.36s0-.008,0-.011l.017-3.042a.678.678,0,1,1,1.357.007l-.017,3.037a11,11,0,0,1-3.332,8.367l-.81.748.64.693.816-.753a10.993,10.993,0,0,1,8.588-2.654l2.8.2a.678.678,0,1,1-.1,1.353l-2.811-.2h-.012a9.661,9.661,0,0,0-7.552,2.3l-1.315,1.213a.676.676,0,0,1-.46.18" transform="translate(29.379 1167.263)" fill="#474747"/>
    <path id="Path_24698" data-name="Path 24698" d="M2.834,315.441H2.767a1.638,1.638,0,0,1-1.146-.529L.436,313.627A1.651,1.651,0,0,1,.53,311.3l8.7-8.03a1.649,1.649,0,0,1,2.33.093l1.185,1.283a1.649,1.649,0,0,1-.093,2.33L3.951,315a1.638,1.638,0,0,1-1.117.437m7.514-11.255a.291.291,0,0,0-.2.078l-8.7,8.03a.293.293,0,0,0-.017.413l1.185,1.283a.293.293,0,0,0,.413.016l8.7-8.03a.293.293,0,0,0,.017-.413l-1.185-1.283a.291.291,0,0,0-.2-.094h-.011" transform="translate(131.973 1046.557)" fill="#474747"/>
    <path id="Path_24699" data-name="Path 24699" d="M90.759,320.878a.676.676,0,0,1-.5-.218l-2.5-2.71a.678.678,0,0,1,1-.92l2.5,2.71a.678.678,0,0,1-.5,1.138" transform="translate(52.314 1033.84)" fill="#474747"/>
    <path id="Path_24700" data-name="Path 24700" d="M199.45,46a.678.678,0,0,1-.46-1.177L209.517,35.1a.678.678,0,1,1,.92,1L199.91,45.817a.676.676,0,0,1-.46.18" transform="translate(-48.823 1290.234)" fill="#474747"/>
    <path id="Path_24701" data-name="Path 24701" d="M256.061,88.279a.677.677,0,0,1-.5-.218l-11.3-12.245a.678.678,0,1,1,1-.92l11.3,12.245a.678.678,0,0,1-.5,1.138" transform="translate(-90.033 1254.077)" fill="#474747"/>
    <path id="Path_24702" data-name="Path 24702" d="M291.9,55.2a.676.676,0,0,1-.5-.218L280.1,42.738a.678.678,0,0,1,1-.92l11.3,12.245a.678.678,0,0,1-.5,1.138" transform="translate(-122.629 1284.163)" fill="#474747"/>
    <path id="Path_24703" data-name="Path 24703" d="M211.487,180.58a.677.677,0,0,1-.5-.218l-5.673-6.146a.678.678,0,1,1,1-.92l5.673,6.146a.678.678,0,0,1-.5,1.138" transform="translate(-54.611 1164.575)" fill="#474747"/>
    <path id="Path_24704" data-name="Path 24704" d="M353.231,49.746a.676.676,0,0,1-.5-.218l-5.673-6.146a.678.678,0,0,1,1-.92l5.673,6.146a.678.678,0,0,1-.5,1.138" transform="translate(-183.536 1283.577)" fill="#474747"/>
    <path id="Path_24705" data-name="Path 24705" d="M221.827,119.878a.676.676,0,0,1-.5-.218l-11.3-12.245a.678.678,0,1,1,1-.92l11.3,12.245a.678.678,0,0,1-.5,1.138" transform="translate(-58.895 1225.335)" fill="#474747"/>
    <path id="Path_24706" data-name="Path 24706" d="M201.581,58.425a.678.678,0,0,1-.46-1.177L217.239,42.37a.678.678,0,0,1,.92,1L202.041,58.245a.676.676,0,0,1-.46.18" transform="translate(-50.761 1283.625)" fill="#474747"/>
    <path id="Path_24707" data-name="Path 24707" d="M234.626,94.225a.678.678,0,0,1-.46-1.177l16.118-14.878a.678.678,0,0,1,.92,1L235.086,94.045a.676.676,0,0,1-.46.18" transform="translate(-80.818 1251.062)" fill="#474747"/>
    <path id="Path_24708" data-name="Path 24708" d="M298.585,153.4a.678.678,0,0,1-.46-1.177l10.527-9.716a.678.678,0,0,1,.92,1l-10.527,9.716a.676.676,0,0,1-.46.18" transform="translate(-138.992 1192.545)" fill="#474747"/>
    <path id="Path_24709" data-name="Path 24709" d="M172.953,27.113a11.047,11.047,0,0,1-8.3-3.441,11.226,11.226,0,0,1-2.67-9.409,16.6,16.6,0,0,1,5.305-9.726A16.6,16.6,0,0,1,177.408.026a11.224,11.224,0,0,1,9.166,3.414,11.226,11.226,0,0,1,2.67,9.409,16.6,16.6,0,0,1-5.305,9.726,16.6,16.6,0,0,1-10.119,4.511q-.437.027-.866.027M178.27,1.356q-.385,0-.778.024a15.244,15.244,0,0,0-9.283,4.154,15.243,15.243,0,0,0-4.882,8.921,9.9,9.9,0,0,0,2.324,8.3c4.083,4.423,11.874,3.9,17.367-1.174s6.641-12.795,2.558-17.218a9.719,9.719,0,0,0-7.306-3m5.208,20.721h0Z" transform="translate(-15.235 1322.001)" fill="#474747"/>
    <path id="Path_24710" data-name="Path 24710" d="M174.782,307.312a.678.678,0,0,1-.4-.131l-1.854-1.361a.678.678,0,0,1-.145-.948l1.053-1.435a.678.678,0,0,1,1.094.8l-.652.888.76.558.657-.9a9.821,9.821,0,0,1,2.243-2.2.678.678,0,0,1,.785,1.107,8.47,8.47,0,0,0-1.934,1.9l-1.059,1.442a.679.679,0,0,1-.547.277" transform="translate(-24.699 1046.889)" fill="#474747"/>
    <path id="Path_24711" data-name="Path 24711" d="M83.143,339.558a1.636,1.636,0,0,1-.972-.32L80.763,338.2a1.649,1.649,0,0,1-.354-2.305l7.006-9.544A1.649,1.649,0,0,1,89.72,326l1.408,1.034a1.649,1.649,0,0,1,.354,2.305l-7.006,9.544a1.639,1.639,0,0,1-1.079.654,1.678,1.678,0,0,1-.253.019m-.17-1.414a.293.293,0,0,0,.409-.063l7.006-9.544a.293.293,0,0,0-.063-.409L88.918,327.1a.292.292,0,0,0-.409.063L81.5,336.7a.292.292,0,0,0,.063.409Z" transform="translate(59.126 1025.772)" fill="#474747"/>
    <path id="Path_24712" data-name="Path 24712" d="M153.577,346.839a.675.675,0,0,1-.4-.132l-2.973-2.182a.678.678,0,0,1,.8-1.094l2.973,2.183a.678.678,0,0,1-.4,1.225" transform="translate(-4.395 1009.747)" fill="#474747"/>
    <path id="Path_24713" data-name="Path 24713" d="M324.022,308.9a5.537,5.537,0,1,1,5.537-5.537,5.543,5.543,0,0,1-5.537,5.537m0-9.717a4.18,4.18,0,1,0,4.18,4.18,4.185,4.185,0,0,0-4.18-4.18" transform="translate(-157.71 1051.108)" fill="#474747"/>
    <path id="Path_24714" data-name="Path 24714" d="M356.822,320.942a.678.678,0,0,1-.255-1.307c2.913-1.178,2.779-2.916,2.265-4.46-.67-2.011,1.285-3.377,2.413-3.819a.678.678,0,0,1,.5,1.262,4.266,4.266,0,0,0-1.078.665c-.716.626-.654,1.135-.544,1.463.958,2.874-.066,4.943-3.043,6.147a.677.677,0,0,1-.254.05" transform="translate(-191.963 1038.845)" fill="#474747"/>
    <rect id="icon_about-2" data-name="icon_about" width="42.174" height="43.33" transform="translate(131.973 1322)" fill="none"/>
  </g>
</svg>
